<?xml version="1.0" encoding="UTF-8" standalone="no"?>
<svg
   xmlns:dc="http://purl.org/dc/elements/1.1/"
   xmlns:cc="http://creativecommons.org/ns#"
   xmlns:rdf="http://www.w3.org/1999/02/22-rdf-syntax-ns#"
   xmlns:svg="http://www.w3.org/2000/svg"
   xmlns="http://www.w3.org/2000/svg"
   xmlns:sodipodi="http://sodipodi.sourceforge.net/DTD/sodipodi-0.dtd"
   xmlns:inkscape="http://www.inkscape.org/namespaces/inkscape"
   width="95.818001"
   height="62"
   viewBox="0 0 95.818001 62"
   id="svg2"
   version="1.1"
   inkscape:version="0.91 r13725"
   sodipodi:docname="24-7-liquidity.svg"
   style="fill:none">
  <metadata
     id="metadata20">
    <rdf:RDF>
      <cc:Work
         rdf:about="">
        <dc:format>image/svg+xml</dc:format>
        <dc:type
           rdf:resource="http://purl.org/dc/dcmitype/StillImage" />
        <dc:title></dc:title>
      </cc:Work>
    </rdf:RDF>
  </metadata>
  <defs
     id="defs18" />
  <sodipodi:namedview
     pagecolor="#ffffff"
     bordercolor="#666666"
     borderopacity="1"
     objecttolerance="10"
     gridtolerance="10"
     guidetolerance="10"
     inkscape:pageopacity="0"
     inkscape:pageshadow="2"
     inkscape:window-width="751"
     inkscape:window-height="405"
     id="namedview16"
     showgrid="false"
     inkscape:zoom="1.7383042"
     inkscape:cx="45.668254"
     inkscape:cy="16.425651"
     inkscape:window-x="965"
     inkscape:window-y="32"
     inkscape:window-maximized="0"
     inkscape:current-layer="svg2" />
  <path
     d="m 5.1104924,4.8311521 72.0649896,0 c 0.666921,0 1.207703,0.5407558 1.207703,1.2077946 0,0.667052 -0.540651,1.2077946 -1.207703,1.2077946 l -72.0649896,0 0,-2.4155892 z"
     id="path4"
     inkscape:connector-curvature="0"
     style="fill:#2ecc71" />
  <path
     d="m 11.552046,12.883199 71.662344,0 c 0.889402,0 1.610401,0.721012 1.610401,1.610415 0,0.889403 -0.720999,1.610401 -1.610401,1.610401 l -71.662344,0 0,-3.220816 z"
     id="path6"
     inkscape:connector-curvature="0"
     style="fill:#2ecc71" />
  <path
     d="m 17.993587,21.740224 73.272679,0 0,34.623305 -73.272679,0 0,-34.623305 z"
     id="path8"
     inkscape:connector-curvature="0"
     style="fill:#2ecc71" />
  <rect
     x="4.831152"
     y="-5.9156146"
     width="43.480446"
     height="0.80519283"
     rx="0.30672199"
     transform="matrix(0,1,-1,0,0,0)"
     id="rect10"
     ry="0.30672199"
     style="fill:#2ecc71" />
  <rect
     x="12.8832"
     y="-12.357155"
     width="45.090851"
     height="0.80519283"
     rx="0.30672199"
     transform="matrix(0,1,-1,0,0,0)"
     id="rect12"
     ry="0.30672199"
     style="fill:#2ecc71" />
  <path
     d="M 1.4036943,0.109874 C 1.0935559,0.279122 0.56860881,0.796844 0.41764662,1.082346 0.29963408,1.305557 0.279297,4.472832 0.279297,22.66861 c 0,15.548926 0.0296249,21.38189 0.10950704,21.53625 0.16093515,0.310949 0.68265456,0.837555 0.98555416,0.994802 0.3957947,0.20555 2.6472198,0.193474 2.857836,-0.01509 0.1386345,-0.137426 0.1535979,-2.129657 0.1535979,-20.483037 0,-18.3534056 0.014963,-20.345636 0.1535978,-20.483102 0.1391332,-0.13786 3.6693502,-0.152207 37.3915441,-0.152207 33.72209,0 37.252267,0.01435 37.3914,0.152207 0.113538,0.112566 0.153572,0.350602 0.153572,0.913475 0,1.0967637 -0.05985,1.0656687 2.053265,1.0656687 1.45683,0 1.771455,-0.025188 1.899694,-0.1522065 0.130864,-0.1298139 0.153572,-0.4883576 0.153572,-2.4283602 0,-1.489422 -0.0378,-2.349231 -0.109469,-2.487768 C 83.312046,0.818261 82.790296,0.291623 82.487353,0.134388 82.260933,0.016874 76.478241,-0.002308 41.911377,2.11e-4 12.753842,0.002311 1.5451771,0.032761 1.4036943,0.109879 Z m 6.453065,8.234051 C 7.3847958,8.5854524 6.8636631,9.0573503 6.6751638,9.4139646 6.5570449,9.6372734 6.5371069,12.7904 6.5390626,30.92118 l 0.00234,21.245513 0.2668339,0.48421 c 0.1989605,0.360959 0.3911875,0.551414 0.7554935,0.748563 0.4522092,0.244665 0.5736358,0.264616 1.6304708,0.266716 0.9098792,0.0017 1.1729982,-0.02875 1.2955012,-0.150028 0.138648,-0.137427 0.153611,-2.129657 0.153611,-20.483037 0,-18.35338 0.01495,-20.34561 0.153598,-20.483076 0.139133,-0.13786 3.66939,-0.152207 37.391479,-0.152207 33.722089,0 37.252398,0.01435 37.391531,0.152207 0.109732,0.108799 0.153572,0.341887 0.153572,0.816594 0,0.98522 -0.03478,0.968813 2.053265,0.968813 1.45683,0 1.771324,-0.0252 1.899562,-0.152259 0.215919,-0.21395 0.229177,-4.3645699 0.01536,-4.7692244 C 89.507943,9.0475585 88.985275,8.5803071 88.49949,8.3393703 L 88.087865,8.1351595 48.167916,8.1394095 8.2478606,8.1436795 7.8567649,8.3439264 Z m 6.1108887,8.327124 c -0.49891,0.296774 -0.777177,0.572546 -0.987268,0.978658 -0.181162,0.350064 -0.186058,0.911716 -0.186058,21.584683 0,18.110028 0.02033,21.263627 0.138346,21.486766 0.233783,0.442076 0.778109,0.885858 1.333592,1.087076 C 14.790897,61.998162 15.170626,62 54.445837,62 c 39.275343,0 39.654941,-0.0018 40.179709,-0.191768 0.555483,-0.201218 1.099809,-0.645 1.333579,-1.087076 0.118001,-0.223139 0.138346,-3.376738 0.138346,-21.486766 0,-20.672967 -0.0049,-21.234619 -0.186124,-21.584683 -0.210012,-0.406112 -0.488279,-0.681884 -0.987189,-0.978658 l -0.342189,-0.203581 -40.136132,0 -40.136,0 -0.342189,0.203581 z m 77.869721,4.016881 c 0.138608,0.137296 0.153571,1.944715 0.153571,18.448542 0,16.503827 -0.01496,18.311246 -0.153571,18.448673 -0.139133,0.137821 -3.669311,0.152128 -37.391532,0.152128 -33.722089,0 -37.252266,-0.01431 -37.3914,-0.152128 -0.138608,-0.137427 -0.153571,-1.944846 -0.153571,-18.448673 0,-16.503827 0.01496,-18.311246 0.153571,-18.448542 0.139134,-0.137952 3.669311,-0.152259 37.3914,-0.152259 33.722221,0 37.252399,0.01431 37.391532,0.152259 z m -70.676401,4.262596 c -0.228126,0.226158 -0.228126,3.538447 0,3.764604 0.22852,0.22642 3.766179,0.22642 3.99483,0 0.227995,-0.226157 0.227995,-3.538446 0,-3.764604 -0.128895,-0.127582 -0.451658,-0.152127 -1.997481,-0.152127 -1.545822,0 -1.868585,0.02454 -1.997349,0.152127 z m 7.423808,-0.03964 c -0.739244,0.403486 -1.319403,1.341585 -1.320978,2.136745 -0.0028,1.33791 -0.89846,2.740924 -2.150003,3.368205 -0.633975,0.317644 -1.618277,0.582785 -2.163784,0.582785 -0.667971,0 -1.31599,0.495629 -1.73654,1.328197 -0.20345,0.402436 -0.206206,0.492873 -0.206206,6.783008 0,6.101255 0.0084,6.397503 0.192686,6.897202 0.105925,0.28706 0.292836,0.628593 0.415562,0.758932 0.332739,0.35374 1.092853,0.702098 1.531647,0.702098 0.479879,0 1.508808,0.254902 1.973461,0.488673 1.05505,0.530937 2.144227,2.152102 2.144227,3.191401 0,0.620849 0.28601,1.475731 0.608117,1.818051 0.122595,0.130339 0.430525,0.341664 0.684115,0.46964 l 0.46124,0.232589 6.302604,0 c 5.599326,0 6.319799,-0.01693 6.456308,-0.152259 0.228126,-0.226026 0.228126,-3.538447 0,-3.764473 -0.135721,-0.134407 -0.741607,-0.152259 -5.18652,-0.152259 l -5.032685,0 -0.236133,-0.23377 c -0.129683,-0.128763 -0.266059,-0.357546 -0.302943,-0.508623 -0.105662,-0.433545 -0.673352,-1.503164 -1.075132,-2.025702 -0.549314,-0.714698 -1.909276,-1.98488 -2.51188,-2.346101 -0.292442,-0.175229 -0.834668,-0.426981 -1.204946,-0.559158 -0.370279,-0.132308 -0.728218,-0.313312 -0.795422,-0.402174 -0.09333,-0.123513 -0.122201,-1.14798 -0.122201,-4.338988 0,-3.194158 0.02874,-4.213768 0.122201,-4.332819 0.0672,-0.08558 0.332475,-0.224582 0.589609,-0.30898 1.530072,-0.502061 3.041243,-1.690469 4.075948,-3.205315 0.557845,-0.816817 0.733337,-1.14588 0.938887,-1.760561 0.08597,-0.257265 0.226944,-0.522143 0.313443,-0.588822 0.12102,-0.09332 1.317697,-0.121151 5.215659,-0.121151 4.468145,0 5.076394,-0.01772 5.212115,-0.152128 0.228126,-0.226157 0.228126,-3.538446 0,-3.764604 -0.13664,-0.135326 -0.865252,-0.151865 -6.575227,-0.14924 -4.486128,0.0021 -6.48059,0.03518 -6.617229,0.109601 z m 23.563394,-0.01733 c -0.161316,0.04436 -0.711286,0.174179 -1.222141,0.288504 -2.343739,0.524769 -5.242829,2.153809 -6.977925,3.921063 -0.949388,0.966845 -2.423675,3.132992 -2.815217,4.136458 -0.814848,2.087917 -1.005041,2.77702 -1.173182,4.249995 -0.335757,2.941224 0.135721,5.572811 1.471006,8.212273 0.708661,1.400783 1.476387,2.440345 2.690522,3.643453 1.454205,1.440817 2.84278,2.387579 4.555957,3.105822 0.349539,0.146483 0.789647,0.333263 0.977739,0.415037 1.109653,0.481585 2.800384,0.737668 4.888695,0.740425 1.653848,0.0021 2.336257,-0.07521 3.617727,-0.410181 1.082745,-0.282991 1.271625,-0.347964 1.830915,-0.628724 0.279972,-0.140577 0.562964,-0.255559 0.628724,-0.255559 0.138477,0 1.189852,-0.609955 2.202637,-1.277926 0.878246,-0.57924 2.673589,-2.33862 3.463367,-3.394063 1.365212,-1.824483 2.408055,-4.446226 2.650357,-6.662907 0.289161,-2.645369 -0.06314,-5.165518 -1.029061,-7.362904 -0.0819,-0.186386 -0.206337,-0.491167 -0.276297,-0.677028 -0.256741,-0.680834 -2.040534,-3.209121 -2.768358,-3.923688 -1.038118,-1.018954 -2.766126,-2.204081 -4.117162,-2.82388 -1.641904,-0.753157 -2.348202,-0.994278 -3.562861,-1.217153 -0.679522,-0.124564 -4.643244,-0.18678 -5.035442,-0.07902 z m 14.966405,0.05696 c -0.128239,0.127189 -0.153703,0.438795 -0.153703,1.882368 0,1.443442 0.02546,1.755048 0.153703,1.882236 0.13572,0.134408 0.744756,0.152391 5.206339,0.153572 2.779121,9.19e-4 5.110915,0.03807 5.181925,0.08256 0.142152,0.08939 0.604311,1.024598 0.604311,1.222929 0,0.198593 1.102959,1.797837 1.574962,2.283491 0.931668,0.958576 2.116925,1.733784 3.188514,2.085424 0.257134,0.0844 0.522406,0.2234 0.58961,0.30898 0.09346,0.119051 0.122201,1.138661 0.122201,4.332819 0,3.190089 -0.02888,4.215868 -0.122201,4.340695 -0.0672,0.08991 -0.379992,0.252933 -0.695142,0.362271 -1.251805,0.434069 -2.811672,1.637047 -3.816844,2.943455 -0.40178,0.522144 -0.969601,1.591763 -1.075395,2.025702 -0.03688,0.151077 -0.17326,0.37986 -0.302943,0.508623 l -0.236133,0.23377 -5.032816,0 c -4.444782,0 -5.050668,0.01785 -5.186388,0.152259 -0.228126,0.226026 -0.228126,3.538447 0,3.764473 0.136508,0.135327 0.856982,0.152259 6.456307,0.152259 l 6.302604,0 0.46124,-0.232589 c 0.25359,-0.127976 0.56152,-0.339301 0.684115,-0.46964 0.290867,-0.309112 0.607855,-1.178038 0.609167,-1.669992 0.0012,-0.450871 0.190849,-1.119892 0.472266,-1.666449 0.245977,-0.477647 1.206259,-1.43911 1.670911,-1.673011 0.464653,-0.233771 1.493582,-0.488673 1.973461,-0.488673 0.438794,0 1.198908,-0.348358 1.531647,-0.702098 0.122594,-0.130339 0.309637,-0.471872 0.415562,-0.758932 0.184286,-0.499305 0.192686,-0.795291 0.192686,-6.773689 0,-5.989423 -0.0081,-6.273333 -0.193605,-6.776313 -0.189274,-0.512693 -0.636732,-1.07487 -1.028667,-1.29197 -0.1075,-0.05959 -0.415431,-0.138477 -0.684378,-0.175361 -1.667236,-0.228782 -2.438245,-0.543407 -3.212797,-1.31074 -0.694091,-0.68779 -1.134854,-1.659886 -1.137086,-2.508336 -0.0024,-0.847662 -0.595254,-1.873704 -1.291707,-2.235188 -0.219726,-0.114063 -1.336467,-0.137033 -6.666057,-0.137033 -5.689631,0 -6.419161,0.01693 -6.555669,0.152127 z m 16.621433,0 c -0.128107,0.127189 -0.153571,0.438795 -0.153571,1.882368 0,1.443442 0.02546,1.755048 0.153571,1.882236 0.228651,0.22642 3.76631,0.22642 3.99483,0 0.228126,-0.226157 0.228126,-3.538446 0,-3.764604 -0.128764,-0.127582 -0.451526,-0.152127 -1.997349,-0.152127 -1.545823,0 -1.868586,0.02454 -1.997481,0.152127 z m -27.38352,4.091305 c 0.548001,0.08847 1.261912,0.312262 2.45347,0.769302 0.841362,0.322631 2.793165,1.731552 3.294964,2.378522 0.13257,0.170766 0.377628,0.463208 0.544588,0.649726 0.769302,0.859344 1.720658,2.827555 1.989999,4.117293 0.05565,0.266454 0.120757,1.195496 0.144515,2.064685 0.04673,1.71042 0.002,2.005487 -0.56559,3.726277 -0.735831,2.231251 -2.832805,4.563964 -5.145829,5.724282 -1.686663,0.845957 -4.049959,1.222535 -5.991524,0.954769 -2.424199,-0.334445 -4.25997,-1.24708 -6.023025,-2.993989 -1.448429,-1.435042 -2.242932,-2.897253 -2.825848,-5.200171 -0.12627,-0.499042 -0.150684,-0.9612 -0.116426,-2.211168 0.04384,-1.601213 0.12837,-2.23637 0.390886,-2.936499 0.580815,-1.548841 0.806316,-1.96926 1.665398,-3.105952 1.037199,-1.372431 2.238077,-2.336651 3.872629,-3.109759 0.89846,-0.424882 2.088705,-0.805923 2.54627,-0.814849 0.189011,-0.0038 0.431444,-0.04607 0.538944,-0.09385 0.236396,-0.1054 2.409499,-0.0504 3.226579,0.08138 z m -35.19152,20.70985 c -0.128239,0.127058 -0.153703,0.438795 -0.153703,1.882237 0,1.443442 0.02546,1.755179 0.153703,1.882236 0.22852,0.22642 3.766179,0.22642 3.99483,0 0.227995,-0.226026 0.227995,-3.538447 0,-3.764473 -0.128895,-0.127582 -0.451658,-0.152259 -1.997481,-0.152259 -1.545822,0 -1.868585,0.02468 -1.997349,0.152259 z m 62.57504,0 c -0.128107,0.127058 -0.153571,0.438795 -0.153571,1.882237 0,1.443442 0.02546,1.755179 0.153571,1.882236 0.228651,0.22642 3.76631,0.22642 3.99483,0 0.228126,-0.226026 0.228126,-3.538447 0,-3.764473 -0.128764,-0.127582 -0.451526,-0.152259 -1.997349,-0.152259 -1.545823,0 -1.868586,0.02468 -1.997481,0.152259 z"
     id="path14"
     inkscape:connector-curvature="0"
     style="clip-rule:evenodd;fill:#000000;fill-rule:evenodd" />
</svg>
