<?xml version="1.0" encoding="UTF-8" standalone="no"?>
<svg
   xmlns:dc="http://purl.org/dc/elements/1.1/"
   xmlns:cc="http://creativecommons.org/ns#"
   xmlns:rdf="http://www.w3.org/1999/02/22-rdf-syntax-ns#"
   xmlns:svg="http://www.w3.org/2000/svg"
   xmlns="http://www.w3.org/2000/svg"
   xmlns:sodipodi="http://sodipodi.sourceforge.net/DTD/sodipodi-0.dtd"
   xmlns:inkscape="http://www.inkscape.org/namespaces/inkscape"
   width="62"
   height="62"
   viewBox="0 0 62 62"
   fill="none"
   id="svg2"
   version="1.1"
   inkscape:version="0.91 r13725"
   sodipodi:docname="automated-compliance.svg">
  <metadata
     id="metadata72">
    <rdf:RDF>
      <cc:Work
         rdf:about="">
        <dc:format>image/svg+xml</dc:format>
        <dc:type
           rdf:resource="http://purl.org/dc/dcmitype/StillImage" />
        <dc:title></dc:title>
      </cc:Work>
    </rdf:RDF>
  </metadata>
  <defs
     id="defs70" />
  <sodipodi:namedview
     pagecolor="#ffffff"
     bordercolor="#666666"
     borderopacity="1"
     objecttolerance="10"
     gridtolerance="10"
     guidetolerance="10"
     inkscape:pageopacity="0"
     inkscape:pageshadow="2"
     inkscape:window-width="1920"
     inkscape:window-height="1017"
     id="namedview68"
     showgrid="false"
     inkscape:zoom="3.8064516"
     inkscape:cx="31"
     inkscape:cy="31"
     inkscape:window-x="-8"
     inkscape:window-y="-8"
     inkscape:window-maximized="1"
     inkscape:current-layer="svg2" />
  <rect
     x="2.7389276"
     y="2.7419243"
     width="28.759003"
     height="46.612198"
     rx="2"
     id="rect4"
     ry="2"
     style="fill:#2ecc71" />
  <rect
     x="2.7419257"
     y="-59.572186"
     width="21.935152"
     height="44.507927"
     rx="2"
     transform="matrix(0,1,-1,0,0,0)"
     id="rect6"
     ry="2"
     style="fill:#2ecc71" />
  <path
     d="m 7.1398799,22.614294 c 0.1769154,0.177076 0.4091741,0.266168 0.6414329,0.266168 0.2322485,0 0.4645073,-0.08859 0.6418964,-0.266168 0.3542944,-0.354655 0.3542944,-0.929973 0,-1.284629 L 6.2198454,19.12384 8.4232092,16.918621 c 0.3542944,-0.35516 0.3542944,-0.929974 0,-1.28473 -0.3543045,-0.354655 -0.9290249,-0.354655 -1.2833293,0 L 4.2951035,18.481728 C 4.12481,18.652245 4.0292617,18.8833 4.0292617,19.12384 c 0,0.241045 0.095548,0.472202 0.2658418,0.642618 l 2.8447764,2.847836 z"
     id="path8"
     inkscape:connector-curvature="0"
     style="fill:#000000" />
  <path
     d="m 16.144321,19.123639 -2.203354,2.205724 c -0.354274,0.354655 -0.354274,0.929973 5.04e-4,1.284729 0.176885,0.177076 0.409103,0.266068 0.641422,0.266068 0.232218,0 0.464438,-0.08899 0.641423,-0.266068 l 2.84518,-2.848341 c 0.354375,-0.354655 0.354375,-0.930074 0,-1.284225 l -2.84518,-2.848341 c -0.354375,-0.354655 -0.928571,-0.354655 -1.282845,0 -0.354778,0.35516 -0.354778,0.930075 0,1.28473 l 2.20285,2.205724 z"
     id="path10"
     inkscape:connector-curvature="0"
     style="fill:#000000" />
  <path
     d="m 9.8295014,22.817401 c 0.1087919,0.04258 0.2213736,0.06296 0.3315666,0.06296 0.362337,0 0.704315,-0.218746 0.844815,-0.576226 l 2.235103,-5.696178 c 0.183536,-0.466954 -0.04636,-0.993943 -0.512817,-1.177677 -0.465848,-0.183331 -0.992874,0.04641 -1.175908,0.513266 l -2.2355249,5.696178 c -0.1830635,0.466954 0.046363,0.994447 0.5127653,1.177677 z"
     id="path12"
     inkscape:connector-curvature="0"
     style="fill:#000000" />
  <path
     d="m 5.4501179,28.209473 6.1129281,0 c 0.500923,0 0.907305,-0.406718 0.907305,-0.908684 0,-0.501461 -0.406382,-0.908281 -0.907305,-0.908281 l -6.1129281,0 c -0.5014063,0 -0.9072644,0.40682 -0.9072644,0.908281 0,0.501966 0.4058581,0.908684 0.9072644,0.908684 z"
     id="path14"
     inkscape:connector-curvature="0"
     style="fill:#000000" />
  <path
     d="m 25.642296,26.392508 -10.747158,0 c -0.500922,0 -0.907305,0.40682 -0.907305,0.908281 0,0.501966 0.406383,0.908684 0.907305,0.908684 l 10.747158,0 c 0.501426,0 0.907707,-0.406718 0.907707,-0.908684 0,-0.501461 -0.406281,-0.908281 -0.907707,-0.908281 z"
     id="path16"
     inkscape:connector-curvature="0"
     style="fill:#000000" />
  <path
     d="m 5.4501179,32.040659 2.6040111,0 c 0.5009327,0 0.9072646,-0.406719 0.9072646,-0.908685 0,-0.501461 -0.4063319,-0.908281 -0.9072646,-0.908281 l -2.6040111,0 c -0.5014063,0 -0.9072644,0.40682 -0.9072644,0.908281 0,0.501966 0.4058581,0.908685 0.9072644,0.908685 z"
     id="path18"
     inkscape:connector-curvature="0"
     style="fill:#000000" />
  <path
     d="m 22.322601,30.223693 c -0.501427,0 -0.907204,0.40682 -0.907204,0.908281 0,0.501966 0.405777,0.908685 0.907204,0.908685 l 1.585616,0 c 0.501427,0 0.907708,-0.406719 0.907708,-0.908685 0,-0.501461 -0.406281,-0.908281 -0.907708,-0.908281 l -1.585616,0 z"
     id="path20"
     inkscape:connector-curvature="0"
     style="fill:#000000" />
  <path
     d="m 19.934198,31.131974 c 0,-0.501461 -0.406282,-0.908281 -0.907204,-0.908281 l -7.788893,0 c -0.501425,0 -0.907203,0.40682 -0.907203,0.908281 0,0.501966 0.405778,0.908685 0.907203,0.908685 l 7.788893,0 c 0.500922,0 0.907204,-0.406719 0.907204,-0.908685 z"
     id="path22"
     inkscape:connector-curvature="0"
     style="fill:#000000" />
  <path
     d="m 25.878344,31.131974 c 0,0.501966 0.406282,0.908685 0.907204,0.908685 l 2.970159,0 c 0.501426,0 0.907808,-0.406719 0.907808,-0.908685 0,-0.501461 -0.406382,-0.908281 -0.907808,-0.908281 l -2.970159,0 c -0.500922,0 -0.907204,0.40682 -0.907204,0.908281 z"
     id="path24"
     inkscape:connector-curvature="0"
     style="fill:#000000" />
  <path
     d="m 20.936648,19.852423 3.132832,0 c 0.501426,0 0.907707,-0.40682 0.907707,-0.908685 0,-0.501562 -0.406281,-0.908281 -0.907707,-0.908281 l -3.132832,0 c -0.501427,0 -0.907708,0.406719 -0.907708,0.908281 0,0.501865 0.406281,0.908685 0.907708,0.908685 z"
     id="path26"
     inkscape:connector-curvature="0"
     style="fill:#000000" />
  <path
     d="m 27.578457,19.852423 19.115386,0 c 0.501426,0 0.907305,-0.40682 0.907305,-0.908685 0,-0.501562 -0.405879,-0.908281 -0.907305,-0.908281 l -19.115386,0 c -0.501427,0 -0.907808,0.406719 -0.907808,0.908281 0,0.501865 0.406381,0.908685 0.907808,0.908685 z"
     id="path28"
     inkscape:connector-curvature="0"
     style="fill:#000000" />
  <path
     d="m 43.790407,22.032216 -7.743436,0 c -0.500923,0 -0.907305,0.406718 -0.907305,0.908684 0,0.501461 0.406382,0.908281 0.907305,0.908281 l 7.743436,0 c 0.500923,0 0.907305,-0.40682 0.907305,-0.908281 0,-0.501966 -0.406382,-0.908684 -0.907305,-0.908684 z"
     id="path30"
     inkscape:connector-curvature="0"
     style="fill:#000000" />
  <path
     d="m 33.143536,22.032216 -2.661744,0 c -0.501326,0 -0.907204,0.406718 -0.907204,0.908684 0,0.501461 0.405878,0.908281 0.907204,0.908281 l 2.661744,0 c 0.501426,0 0.907305,-0.40682 0.907305,-0.908281 0,-0.501966 -0.405879,-0.908684 -0.907305,-0.908684 z"
     id="path32"
     inkscape:connector-curvature="0"
     style="fill:#000000" />
  <path
     d="m 20.936648,23.849181 6.52066,0 c 0.500923,0 0.907305,-0.40682 0.907305,-0.908281 0,-0.501966 -0.406382,-0.908684 -0.907305,-0.908684 l -6.52066,0 c -0.501427,0 -0.907708,0.406718 -0.907708,0.908684 0,0.501461 0.406281,0.908281 0.907708,0.908281 z"
     id="path34"
     inkscape:connector-curvature="0"
     style="fill:#000000" />
  <path
     d="m 19.038383,34.022894 -6.112464,0 c -0.501427,0 -0.90781,0.406819 -0.90781,0.908281 0,0.501461 0.406383,0.90818 0.90781,0.90818 l 6.112464,0 c 0.500923,0 0.907204,-0.406719 0.907204,-0.90818 0,-0.501462 -0.406281,-0.908281 -0.907204,-0.908281 z"
     id="path36"
     inkscape:connector-curvature="0"
     style="fill:#000000" />
  <path
     d="m 10.146353,34.022894 -4.6962351,0 c -0.5014063,0 -0.9072644,0.406819 -0.9072644,0.908281 0,0.501461 0.4058581,0.90818 0.9072644,0.90818 l 4.6962351,0 c 0.501426,0 0.907204,-0.406719 0.907204,-0.90818 0,-0.501462 -0.405778,-0.908281 -0.907204,-0.908281 z"
     id="path38"
     inkscape:connector-curvature="0"
     style="fill:#000000" />
  <path
     d="m 30.119052,34.022894 -7.985129,0 c -0.501427,0 -0.907304,0.406819 -0.907304,0.908281 0,0.501461 0.405877,0.90818 0.907304,0.90818 l 7.985129,0 c 0.500922,0 0.907204,-0.406719 0.907204,-0.90818 0,-0.501462 -0.406282,-0.908281 -0.907204,-0.908281 z"
     id="path40"
     inkscape:connector-curvature="0"
     style="fill:#000000" />
  <path
     d="m 40.917712,29.35668 -4.366492,0 c -0.500923,0 -0.907305,0.406718 -0.907305,0.90818 0,0.501965 0.406382,0.908684 0.907305,0.908684 l 4.366492,0 c 0.501427,0 0.907305,-0.406719 0.907305,-0.908684 0,-0.501462 -0.405878,-0.90818 -0.907305,-0.90818 z"
     id="path42"
     inkscape:connector-curvature="0"
     style="fill:#000000" />
  <path
     d="m 48.494645,31.173544 6.163967,0 c 0.501427,0 0.907709,-0.406719 0.907709,-0.908684 0,-0.501462 -0.406282,-0.90818 -0.907709,-0.90818 l -6.163967,0 c -0.501427,0 -0.907305,0.406718 -0.907305,0.90818 0,0.501965 0.406382,0.908684 0.907305,0.908684 z"
     id="path44"
     inkscape:connector-curvature="0"
     style="fill:#000000" />
  <path
     d="m 45.412409,29.35668 -1.412461,0 c -0.501426,0 -0.907809,0.406718 -0.907809,0.90818 0,0.501965 0.406383,0.908684 0.907809,0.908684 l 1.412461,0 c 0.501326,0 0.907203,-0.406719 0.907203,-0.908684 0,-0.501462 -0.405877,-0.90818 -0.907203,-0.90818 z"
     id="path46"
     inkscape:connector-curvature="0"
     style="fill:#000000" />
  <path
     d="m 36.55122,41.072715 4.366492,0 c 0.501427,0 0.907305,-0.406315 0.907305,-0.908281 0,-0.501461 -0.405878,-0.90818 -0.907305,-0.90818 l -4.366492,0 c -0.500923,0 -0.907305,0.406719 -0.907305,0.90818 0,0.501966 0.406382,0.908281 0.907305,0.908281 z"
     id="path48"
     inkscape:connector-curvature="0"
     style="fill:#000000" />
  <path
     d="m 48.494645,41.072715 6.163967,0 c 0.501427,0 0.907709,-0.406315 0.907709,-0.908281 0,-0.501461 -0.406282,-0.90818 -0.907709,-0.90818 l -6.163967,0 c -0.501427,0 -0.907305,0.406719 -0.907305,0.90818 0,0.501966 0.406382,0.908281 0.907305,0.908281 z"
     id="path50"
     inkscape:connector-curvature="0"
     style="fill:#000000" />
  <path
     d="m 44.000049,41.072715 1.41246,0 c 0.501326,0 0.907709,-0.406315 0.907709,-0.908281 0,-0.501461 -0.406383,-0.90818 -0.907709,-0.90818 l -1.41246,0 c -0.501426,0 -0.907305,0.406719 -0.907305,0.90818 0,0.501966 0.405879,0.908281 0.907305,0.908281 z"
     id="path52"
     inkscape:connector-curvature="0"
     style="fill:#000000" />
  <path
     d="m 40.917712,49.155324 -4.366492,0 c -0.500923,0 -0.907305,0.406819 -0.907305,0.908281 0,0.501461 0.406382,0.908179 0.907305,0.908179 l 4.366492,0 c 0.501427,0 0.907305,-0.406718 0.907305,-0.908179 0,-0.501462 -0.405878,-0.908281 -0.907305,-0.908281 z"
     id="path54"
     inkscape:connector-curvature="0"
     style="fill:#000000" />
  <path
     d="m 54.658612,49.155324 -6.163967,0 c -0.501427,0 -0.907305,0.406819 -0.907305,0.908281 0,0.501461 0.405878,0.908179 0.907305,0.908179 l 6.163967,0 c 0.501427,0 0.907709,-0.406718 0.907709,-0.908179 0,-0.501462 -0.406282,-0.908281 -0.907709,-0.908281 z"
     id="path56"
     inkscape:connector-curvature="0"
     style="fill:#000000" />
  <path
     d="m 45.412409,49.155324 -1.412461,0 c -0.501426,0 -0.907809,0.406819 -0.907809,0.908281 0,0.501461 0.406383,0.908179 0.907809,0.908179 l 1.412461,0 c 0.501326,0 0.907203,-0.406718 0.907203,-0.908179 0,-0.501462 -0.405877,-0.908281 -0.907203,-0.908281 z"
     id="path58"
     inkscape:connector-curvature="0"
     style="fill:#000000" />
  <path
     d="M 58.007234,0 3.9937637,0 C 1.7918211,0 0,1.7932744 0,3.9980598 L 0,47.950202 c 0,2.204311 1.7918211,3.997566 3.9937637,3.997566 l 3.41478,0 c 0.5009326,0 0.9072645,-0.406315 0.9072645,-0.908281 0,-0.501462 -0.4063319,-0.90818 -0.9072645,-0.90818 l -3.41478,0 c -1.2014883,0 -2.1787611,-0.978405 -2.1787611,-2.181105 l 0,-3.445958 33.0583784,0 0,1.565528 -0.719433,0 c -0.984409,0 -1.784776,0.801229 -1.784776,1.786595 l 0,2.27494 -19.443758,0 c -0.500922,0 -0.907204,0.406718 -0.907204,0.90818 0,0.501966 0.406282,0.908281 0.907204,0.908281 l 8.724519,0 0,3.257884 -2.739754,0 c -1.827813,0 -3.314454,1.488846 -3.314454,3.318121 l 0,1.962258 C 15.595725,61.320959 16.274036,62 17.107966,62 l 27.715532,0 c 0.83393,0 1.512241,-0.679041 1.512241,-1.513969 l 0,-1.962258 c 0,-1.829275 -1.486641,-3.318121 -3.314455,-3.318121 l -2.739754,0 0,-1.148316 16.774859,0 c 0.983904,0 1.784271,-0.801228 1.784271,-1.786595 l 0,-0.427604 c 1.76865,-0.411057 3.090804,-1.999792 3.090804,-3.892935 L 62,3.9975856 C 62.000504,1.7932744 60.209177,0 58.007234,0 Z m -23.82305,42.341604 0,-4.354138 22.841968,0 0,4.354138 -22.841968,0 z m 2.503706,-6.171103 0,-1.911204 17.834052,0 0,1.911204 -17.834052,0 z m 17.834052,7.987563 0,1.911708 -17.834052,0 0,-1.911708 17.834052,0 z m -31.057501,7.789704 8.904731,0 0,0.323377 c 0,0.984963 0.800367,1.786191 1.784776,1.786191 l 4.313074,0 0,1.148316 -15.002581,0 0,-3.257884 z m 19.557348,5.074849 c 0.826773,0 1.499441,0.673391 1.499441,1.501156 l 0,1.659665 -27.110996,0 0,-1.659665 c 0,-0.827765 0.67307,-1.501156 1.499945,-1.501156 l 24.11161,0 z m 14.004363,-4.782246 -22.841968,0 0,-4.353634 22.841968,0 0,4.353634 z m 3.090802,-4.290169 c 0,0.879828 -0.524104,1.637973 -1.275789,1.982236 l 0,-2.076474 c 0,-0.984963 -0.800872,-1.786192 -1.784776,-1.786192 l -0.719434,0 0,-1.565528 3.779999,0 0,3.445958 z m 0,-5.262418 -1.305623,0 c 0.01844,-0.102714 0.02984,-4.730587 0.02984,-4.730587 0,-0.985468 -0.800872,-1.786696 -1.784776,-1.786696 l -0.719434,0 0,-1.911204 0.719434,0 c 0.983904,0 1.784776,-0.801632 1.784776,-1.786595 l 0,-4.414777 c 0,-0.984963 -0.800872,-1.786696 -1.784776,-1.786696 l -5.125234,0 c -0.501326,0 -0.907204,0.40682 -0.907204,0.908785 0,0.501462 0.405878,0.90818 0.907204,0.90818 l 5.094997,0 0,4.354138 -22.841968,0 0,-4.354138 12.100958,0 c 0.501427,0 0.907305,-0.406718 0.907305,-0.90818 0,-0.501965 -0.405878,-0.908785 -0.907305,-0.908785 l -12.131194,0 c -0.984409,0 -1.784776,0.801733 -1.784776,1.786696 l 0,4.414777 c 0,0.984963 0.800367,1.786595 1.784776,1.786595 l 0.719433,0 0,1.911204 -0.719433,0 c -0.984409,0 -1.784776,0.801733 -1.784776,1.786696 0,0 0.01139,4.627873 0.02984,4.730587 l -30.5840034,0 0,-30.331352 58.3019514,0 0,30.331352 z m 0,-32.148317 -58.2352591,0 0,-6.5418814 c 0,-1.2023066 0.9772726,-2.1806306 2.1787611,-2.1806306 l 53.877738,0 c 1.201408,0 2.17876,0.978324 2.17876,2.1811048 l 0,6.5414072 z"
     id="path60"
     inkscape:connector-curvature="0"
     style="fill:#000000" />
  <path
     d="m 6.6919322,3.4865894 c -1.4682776,0 -2.6626705,1.1956777 -2.6626705,2.6655246 0,1.469857 1.1943929,2.6660088 2.6626705,2.6660088 1.4682674,0 2.663134,-1.1961518 2.663134,-2.6660088 0,-1.4698469 -1.1948666,-2.6655246 -2.663134,-2.6655246 z m 0,3.5145784 c -0.4673497,0 -0.8481415,-0.3807272 -0.8481415,-0.8490538 0,-0.4678524 0.3807918,-0.8490438 0.8481415,-0.8490438 0.4678233,0 0.8481314,0.3811914 0.8481314,0.8490438 0,0.4683266 -0.3803081,0.8490538 -0.8481314,0.8490538 z"
     id="path62"
     inkscape:connector-curvature="0"
     style="fill:#000000" />
  <path
     d="m 13.471893,3.4865894 c -1.468297,0 -2.663154,1.1956777 -2.663154,2.6655246 0,1.469857 1.194857,2.6660088 2.663154,2.6660088 1.468198,0 2.662651,-1.1961518 2.662651,-2.6660088 0,-1.4698469 -1.194857,-2.6655246 -2.662651,-2.6655246 z m 0,3.5145784 c -0.467863,0 -0.848141,-0.3807272 -0.848141,-0.8490538 0,-0.4678524 0.380278,-0.8490438 0.848141,-0.8490438 0.467361,0 0.848142,0.3811914 0.848142,0.8490438 0,0.4683266 -0.380781,0.8490538 -0.848142,0.8490538 z"
     id="path64"
     inkscape:connector-curvature="0"
     style="fill:#000000" />
  <path
     d="m 20.25118,3.4865894 c -1.468298,0 -2.66265,1.1956777 -2.66265,2.6655246 0,1.469857 1.194352,2.6660088 2.66265,2.6660088 1.468297,0 2.663154,-1.1961518 2.663154,-2.6660088 0,-1.4698469 -1.194857,-2.6655246 -2.663154,-2.6655246 z m 0,3.5145784 c -0.467359,0 -0.848142,-0.3807272 -0.848142,-0.8490538 0,-0.4678524 0.380783,-0.8490438 0.848142,-0.8490438 0.467864,0 0.848142,0.3811914 0.848142,0.8490438 0,0.4683266 -0.380278,0.8490538 -0.848142,0.8490538 z"
     id="path66"
     inkscape:connector-curvature="0"
     style="fill:#000000" />
</svg>
