<?xml version="1.0" encoding="UTF-8" standalone="no"?>
<svg
   xmlns:dc="http://purl.org/dc/elements/1.1/"
   xmlns:cc="http://creativecommons.org/ns#"
   xmlns:rdf="http://www.w3.org/1999/02/22-rdf-syntax-ns#"
   xmlns:svg="http://www.w3.org/2000/svg"
   xmlns="http://www.w3.org/2000/svg"
   xmlns:sodipodi="http://sodipodi.sourceforge.net/DTD/sodipodi-0.dtd"
   xmlns:inkscape="http://www.inkscape.org/namespaces/inkscape"
   width="71.438004"
   height="62"
   viewBox="0 0 71.438004 62"
   id="svg2"
   version="1.1"
   inkscape:version="0.91 r13725"
   sodipodi:docname="brand-engagement.svg"
   style="fill:none">
  <metadata
     id="metadata12">
    <rdf:RDF>
      <cc:Work
         rdf:about="">
        <dc:format>image/svg+xml</dc:format>
        <dc:type
           rdf:resource="http://purl.org/dc/dcmitype/StillImage" />
        <dc:title></dc:title>
      </cc:Work>
    </rdf:RDF>
  </metadata>
  <defs
     id="defs10" />
  <sodipodi:namedview
     pagecolor="#ffffff"
     bordercolor="#666666"
     borderopacity="1"
     objecttolerance="10"
     gridtolerance="10"
     guidetolerance="10"
     inkscape:pageopacity="0"
     inkscape:pageshadow="2"
     inkscape:window-width="751"
     inkscape:window-height="480"
     id="namedview8"
     showgrid="false"
     inkscape:zoom="4.1403509"
     inkscape:cx="33"
     inkscape:cy="28.5"
     inkscape:window-x="807"
     inkscape:window-y="258"
     inkscape:window-maximized="0"
     inkscape:current-layer="svg2" />
  <path
     d="m 18.910218,0.0311326 c -0.0297,0.0286 -0.358295,0.077023 -0.730295,0.107605 -0.372,0.030582 -0.874309,0.086296 -1.116218,0.1237454 -0.669165,0.1037119 -3.073024,0.720316 -3.333968,0.8551704 -0.08365,0.043259 -0.343828,0.1378358 -0.578232,0.2101147 -0.234294,0.072279 -0.661333,0.2458681 -0.948926,0.3857488 -0.287484,0.1398916 -0.562895,0.254287 -0.611842,0.254287 -0.04895,0 -0.305432,0.1229014 -0.569965,0.2731263 C 10.756336,2.3911443 10.222484,2.6937151 9.8344291,2.9132495 9.2545442,3.2413709 7.5604105,4.4127032 7.4246523,4.5794941 7.4044973,4.6041962 7.2072498,4.7673758 6.986247,4.9420962 6.4742358,5.34688 5.6503319,6.1419593 5.225621,6.6412551 5.0442112,6.8545569 4.8248944,7.099 4.7383228,7.1845165 4.4740723,7.4455365 3.9598639,8.1189109 3.3375361,9.0188246 2.7896846,9.8110758 1.6420863,11.90226 1.3699933,12.604165 0.94609607,13.697758 0.66909095,14.549769 0.53553642,15.170639 0.08627518,17.259495 0,18.040477 0,20.019909 c 0,2.954354 0.33835793,4.672407 1.5163025,7.699421 0.2516438,0.646649 1.2551301,2.483481 1.7312249,3.168744 0.4766712,0.686242 1.5787593,2.072866 1.8274663,2.29933 0.064143,0.05841 0.2644681,0.280414 0.44516,0.493498 C 5.7877761,33.996558 33.721256,61.01866 34.339189,61.559691 34.613403,61.799751 35.252112,62 35.743979,62 c 0.329688,0 0.541358,-0.05123 0.904874,-0.218632 0.44107,-0.203403 1.489522,-1.19921 14.927207,-14.178094 7.948943,-7.677667 14.601,-14.133716 14.782322,-14.346909 0.181214,-0.213084 0.370369,-0.429214 0.420295,-0.480011 0.826776,-0.841677 2.633912,-3.749477 3.142639,-5.057024 0.842221,-2.164126 1.14167,-3.284151 1.434158,-5.363218 0.109424,-0.77848 0.109424,-4.035438 0,-4.813919 -0.149779,-1.064225 -0.310653,-1.931898 -0.446292,-2.406905 -0.26747,-0.936309 -0.372979,-1.2772 -0.482186,-1.557505 -0.06831,-0.175232 -0.204164,-0.53592 -0.301842,-0.801541 C 69.582926,11.302274 67.701498,8.202872 66.778677,7.2635285 66.728751,7.2126993 66.539596,6.9964934 66.358382,6.7830502 65.937109,6.2872242 65.113814,5.4917316 64.598235,5.0826839 64.377428,4.9074741 64.124316,4.6956625 64.035775,4.6120604 63.643544,4.2416702 62.43933,3.4223892 61.374126,2.8011818 60.760326,2.4432569 59.180196,1.667365 58.755007,1.5151604 58.603053,1.4607964 58.313828,1.3521983 58.112274,1.2738934 57.200982,0.9197222 55.976428,0.5597415 55.143561,0.4011661 53.566042,0.1007222 52.76113,0.0334692 50.745477,0.0334692 c -1.068358,0 -2.222754,0.036812 -2.565495,0.081765 -1.060526,0.1392498 -1.946364,0.290817 -2.492182,0.4264556 -0.255179,0.06336 -2.318039,0.7418409 -2.914435,0.9584602 -0.637186,0.2314884 -2.55886,1.2036919 -3.201593,1.6197336 -0.64567,0.4178909 -1.968663,1.3614221 -2.174786,1.5509355 -0.05624,0.051678 -0.282481,0.2371554 -0.502961,0.4121477 -0.220481,0.1750684 -0.547993,0.4536442 -0.727793,0.6191516 -0.1798,0.1655182 -0.381899,0.300874 -0.44912,0.300874 -0.06711,0 -0.301624,-0.1672803 -0.521017,-0.3716628 C 34.976702,5.4269471 34.616993,5.1164576 34.39673,4.9413892 34.176467,4.766386 33.953158,4.5836709 33.900512,4.5354632 33.547547,4.2120081 32.28786,3.365186 31.320768,2.8011818 30.706968,2.4432569 29.126839,1.667365 28.70154,1.5151604 28.549586,1.4607964 28.243937,1.3458895 28.02226,1.2598835 27.179712,0.9330315 27.058214,0.8948743 25.749905,0.5462907 25.263368,0.4165987 24.332825,0.2549788 23.29427,0.1196231 22.598891,0.0290091 18.987881,-0.0439076 18.910218,0.0311331 Z m 4.127568,4.3276959 c 0.968614,0.1718161 1.240979,0.2288017 1.759168,0.3684105 0.302386,0.081481 0.731165,0.1948214 0.952951,0.2519484 1.371723,0.3534 4.523172,2.0308263 5.462744,2.9076695 0.162288,0.1514214 0.474463,0.4186631 0.693639,0.593873 0.219175,0.1752207 0.905526,0.8049122 1.525308,1.3993617 0.619565,0.5944494 1.214548,1.1227334 1.322123,1.1739644 0.107467,0.05123 0.379832,0.134225 0.605316,0.184369 0.375807,0.08365 0.448793,0.0781 0.87953,-0.06657 0.258442,-0.0868 0.5456,-0.203839 0.638056,-0.260074 0.09257,-0.05631 0.703537,-0.618325 1.3578,-1.2490282 0.654263,-0.6306161 1.369656,-1.2899807 1.589702,-1.4651905 0.220045,-0.1752098 0.499589,-0.4101028 0.621305,-0.521953 0.279326,-0.2568323 1.381839,-0.978001 2.053723,-1.3435074 1.395,-0.7587494 1.34181,-0.7348957 2.638807,-1.1840042 0.571379,-0.1977908 1.937337,-0.5422063 2.748884,-0.6930621 0.221677,-0.041203 0.535049,-0.099178 0.696358,-0.1288403 0.1612,-0.029662 1.134274,-0.05394 2.162277,-0.05394 1.028112,0 2.001186,0.024278 2.162386,0.05394 0.161309,0.029662 0.474681,0.087638 0.696358,0.1288403 0.755312,0.1403811 2.204916,0.5002965 2.587358,0.6423744 0.209821,0.077946 0.505572,0.1861088 0.657309,0.2404839 1.035182,0.3705316 2.913782,1.4225084 4.003024,2.2414414 0.60227,0.4528502 2.112677,1.9135919 2.708421,2.6193907 0.687439,0.814322 1.923197,2.822034 2.241246,3.641195 0.505789,1.302435 0.705603,1.958547 0.923147,3.029733 0.04732,0.233642 0.102572,0.488495 0.122477,0.566376 0.271604,1.059329 0.24985,4.030652 -0.03927,5.344835 -0.0384,0.175231 -0.09246,0.445965 -0.119867,0.601726 -0.04688,0.266274 -0.132375,0.571053 -0.496653,1.769828 -0.08277,0.272583 -0.226789,0.644474 -0.320007,0.826558 -0.09322,0.182193 -0.214171,0.456407 -0.268775,0.609558 -0.171425,0.480337 -1.353775,2.366116 -2.006951,3.200831 -0.474572,0.606186 -1.932333,2.113874 -3.204856,3.314172 -0.399737,0.377113 -0.861474,0.825906 -1.026154,0.997548 -0.16479,0.171642 -0.626527,0.617607 -1.026264,0.99113 -0.399736,0.373522 -0.861473,0.819487 -1.026154,0.991129 -0.164789,0.171534 -0.626526,0.617499 -1.026263,0.991021 -0.399737,0.373523 -0.861474,0.819488 -1.026263,0.99113 -0.164681,0.171642 -0.627179,0.617607 -1.027895,0.99113 -0.400716,0.373414 -0.895519,0.850379 -1.099575,1.059765 -0.203948,0.209277 -0.666011,0.655242 -1.026699,0.991021 -0.360687,0.335779 -0.822424,0.781853 -1.026263,0.99113 -0.20373,0.209386 -0.665575,0.655351 -1.026154,0.99113 -0.360688,0.335779 -0.822425,0.781744 -1.026263,0.991021 -0.20373,0.209386 -0.665576,0.655351 -1.026155,0.99113 -0.360687,0.335779 -0.822424,0.781743 -1.026263,0.991021 -0.20373,0.209386 -0.697554,0.687221 -1.097182,1.06194 -0.399737,0.374719 -0.861583,0.821663 -1.026263,0.993305 -0.164681,0.171534 -0.626527,0.617607 -1.026155,0.991021 -0.399737,0.373523 -0.861582,0.819488 -1.026263,0.99113 -0.164681,0.171642 -0.626526,0.617607 -1.026154,0.99113 -0.399737,0.373523 -0.861583,0.818509 -1.026264,0.989063 -0.420838,0.435632 -1.429263,1.406204 -1.810943,1.742961 -0.176646,0.155762 -0.452927,0.427365 -0.614236,0.603467 -0.1612,0.176102 -0.474354,0.462825 -0.695705,0.637186 -0.221459,0.174253 -0.686351,0.591828 -1.033116,0.927825 -0.346873,0.336105 -0.701143,0.647519 -0.787291,0.692115 C 35.659789,56.758933 34.812565,55.958807 24.401133,45.914154 18.215165,39.946274 12.945056,34.871302 12.689986,34.636681 11.593674,33.628365 8.1519449,30.203681 7.8149803,29.78567 6.6302147,28.316161 5.6468186,26.514246 5.1123786,24.833828 4.5105,22.941305 4.3932982,22.156516 4.3932982,20.019909 c 0,-1.880123 0.094338,-2.686232 0.4640646,-3.964411 0.08444,-0.291944 0.201946,-0.706147 0.2610961,-0.92021 C 5.2568495,14.634284 5.4177449,14.2662 6.0428572,13.020435 6.8959337,11.32033 7.6649403,10.296351 9.1928923,8.8259937 10.699895,7.3758681 11.633375,6.7296758 13.573214,5.7935193 c 1.353993,-0.6533494 1.793649,-0.7930235 4.242867,-1.347967 0.171968,-0.03894 0.419424,-0.073062 0.549733,-0.075749 0.130526,-0.00276 0.303256,-0.033132 0.383856,-0.067537 0.193179,-0.082471 3.770144,-0.035253 4.288116,0.056561 z"
     id="path4"
     inkscape:connector-curvature="0"
     style="clip-rule:evenodd;fill:#000000;fill-rule:evenodd" />
  <path
     d="m 20.431719,7.337972 c -0.08386,0.031239 -0.366452,0.05878 -0.62794,0.06126 -0.261488,0.00241 -0.62174,0.032697 -0.800561,0.067178 -1.617548,0.3120665 -2.299113,0.481022 -3.702597,0.9180893 -1.329084,0.4138555 -3.446656,1.5915509 -4.695891,2.6115817 -2.0413009,1.666821 -3.6247591,4.22927 -4.030076,6.521747 -0.1100228,0.622284 -0.1061287,2.934232 0.0061,3.625804 0.1544671,0.951972 0.3223565,1.734912 0.4638688,2.162821 0.3667354,1.109147 0.7309583,2.067863 0.9424653,2.480761 0.062751,0.122477 0.1902312,0.380049 0.2833291,0.572467 1.129107,2.333158 2.5550308,4.412007 4.9462408,7.210708 0.670796,0.785225 2.589424,2.855808 2.74921,2.967081 0.02513,0.01751 0.199162,0.189263 0.386684,0.381681 0.187632,0.192417 0.359165,0.364168 0.381246,0.381681 0.02208,0.0174 0.194049,0.189154 0.382116,0.381572 0.187958,0.192526 0.461954,0.450098 0.609123,0.572575 0.147059,0.122477 0.4216,0.380049 0.610101,0.572467 0.188611,0.192417 0.497306,0.478705 0.686025,0.636098 0.188719,0.157502 0.497523,0.442919 0.686242,0.634358 0.444442,0.451077 8.147018,6.878084 8.692944,7.253456 0.228965,0.157393 0.811765,0.615431 1.295038,1.01767 0.483383,0.402347 1.066836,0.860386 1.296562,1.017779 0.229726,0.157502 0.709954,0.529611 1.067052,0.826993 0.357099,0.297382 0.836239,0.669491 1.06466,0.826884 0.228421,0.157502 0.78294,0.588239 1.232277,0.957411 0.449337,0.369063 0.93979,0.72627 1.090004,0.793709 0.268993,0.120845 0.276607,0.120845 0.544077,7.61e-4 0.149235,-0.06711 0.605425,-0.395604 1.013754,-0.730186 0.40833,-0.334474 0.929239,-0.73693 1.157551,-0.894432 0.228313,-0.157393 0.741716,-0.558217 1.140909,-0.890515 0.399302,-0.332407 0.913793,-0.733123 1.143519,-0.890625 0.229727,-0.157393 0.813071,-0.615432 1.296344,-1.017779 0.483383,-0.402239 1.066183,-0.860277 1.295148,-1.01767 0.545926,-0.375372 8.248393,-6.802379 8.692943,-7.253456 0.18872,-0.191439 0.497523,-0.476856 0.686243,-0.634358 0.188719,-0.157393 0.497414,-0.443681 0.685915,-0.636098 0.188611,-0.192418 0.463151,-0.44999 0.610211,-0.572467 0.14706,-0.122477 0.421165,-0.380049 0.609123,-0.572575 0.188066,-0.192418 0.359926,-0.364169 0.382007,-0.381572 0.02219,-0.01751 0.193722,-0.189264 0.381245,-0.381681 0.187632,-0.192418 0.361558,-0.364169 0.386685,-0.381681 0.159894,-0.111273 2.078522,-2.181856 2.749319,-2.967081 2.367203,-2.770747 3.837909,-4.914533 4.946621,-7.210708 0.09278,-0.192418 0.220154,-0.44999 0.282916,-0.572467 0.211452,-0.412898 0.575729,-1.371614 0.9424,-2.480761 0.141512,-0.427909 0.309456,-1.210849 0.463912,-2.162821 0.112253,-0.691572 0.116168,-3.00352 0.0061,-3.625804 -0.405284,-2.292477 -1.988786,-4.854926 -4.03,-6.521747 -1.2486,-1.0195304 -3.360516,-2.194289 -4.695909,-2.6120929 -2.693519,-0.8427105 -4.031522,-1.062234 -6.465403,-1.0607112 -2.238526,0.00134 -3.900997,0.206101 -5.45154,0.6713512 -1.336807,0.4011291 -1.54565,0.4828712 -2.554183,0.9992007 -0.923582,0.4728207 -1.491372,0.861354 -2.54461,1.7410902 -1.135036,0.948056 -1.649853,1.472555 -2.55266,2.60052 -0.503288,0.628701 -0.742151,0.874635 -0.849835,0.874635 -0.107576,0 -0.346548,-0.245934 -0.849835,-0.874635 -0.902807,-1.127965 -1.417625,-1.652463 -2.552551,-2.60052 C 31.046772,9.6745344 30.068586,9.0616372 28.76713,8.5112186 27.868565,8.1312674 26.146053,7.6699004 25.082589,7.5244179 23.787551,7.3472611 20.735411,7.2248709 20.431719,7.337972 Z"
     id="path6"
     inkscape:connector-curvature="0"
     style="clip-rule:evenodd;fill:#2ecc71;fill-rule:evenodd" />
</svg>
