<?xml version="1.0" encoding="UTF-8" standalone="no"?>
<svg
   xmlns:dc="http://purl.org/dc/elements/1.1/"
   xmlns:cc="http://creativecommons.org/ns#"
   xmlns:rdf="http://www.w3.org/1999/02/22-rdf-syntax-ns#"
   xmlns:svg="http://www.w3.org/2000/svg"
   xmlns="http://www.w3.org/2000/svg"
   xmlns:sodipodi="http://sodipodi.sourceforge.net/DTD/sodipodi-0.dtd"
   xmlns:inkscape="http://www.inkscape.org/namespaces/inkscape"
   width="307"
   height="335"
   viewBox="0 0 307 335"
   id="svg2"
   version="1.1"
   inkscape:version="0.91 r13725"
   sodipodi:docname="group-trade.svg"
   style="fill:none">
  <metadata
     id="metadata72">
    <rdf:RDF>
      <cc:Work
         rdf:about="">
        <dc:format>image/svg+xml</dc:format>
        <dc:type
           rdf:resource="http://purl.org/dc/dcmitype/StillImage" />
        <dc:title></dc:title>
      </cc:Work>
    </rdf:RDF>
  </metadata>
  <defs
     id="defs70" />
  <sodipodi:namedview
     pagecolor="#ffffff"
     bordercolor="#666666"
     borderopacity="1"
     objecttolerance="10"
     gridtolerance="10"
     guidetolerance="10"
     inkscape:pageopacity="0"
     inkscape:pageshadow="2"
     inkscape:window-width="1920"
     inkscape:window-height="1017"
     id="namedview68"
     showgrid="false"
     inkscape:zoom="0.69411765"
     inkscape:cx="153.5"
     inkscape:cy="170"
     inkscape:window-x="-8"
     inkscape:window-y="-8"
     inkscape:window-maximized="1"
     inkscape:current-layer="svg2" />
  <path
     d="m 302.911,280.56852 -89.924,51.7518 c -4.023,2.32852 -10.122,2.58724 -13.625,0.51745 L 2.38415,219.37327 c -3.50356,-1.94043 -2.984447,-5.4342 1.03815,-7.76272 l 89.9245,-51.75081 c 4.0226,-2.32951 10.1212,-2.58823 13.6252,-0.51745 L 303.949,272.8058 c 3.504,1.94142 2.985,5.4342 -1.038,7.76272 z"
     id="path4"
     inkscape:connector-curvature="0"
     style="fill:#0f632d" />
  <path
     d="M 306.285,248.09465 287.729,244.86059 106.972,140.71215 c -3.504,-1.94142 -9.6024,-1.81205 -13.625,0.51745 l -83.82575,48.25705 -9.4725439,-1.68171 0,9.57379 c 0,1.29363 0.7785509,2.45887 2.3356839,3.36441 L 199.362,314.20665 c 3.503,1.94142 9.602,1.81205 13.625,-0.51745 l 89.924,-51.75082 c 2.206,-1.29362 3.374,-2.97533 3.374,-4.52768 l 0,-9.31605 z"
     id="path6"
     inkscape:connector-curvature="0"
     style="fill:#1e7742" />
  <path
     d="m 302.912,252.49395 -89.925,51.75082 c -4.022,2.32852 -10.121,2.58823 -13.625,0.51745 L 2.38485,191.29772 c -3.50355,-1.94043 -2.984445,-5.43321 1.03815,-7.76173 l 89.9245,-51.7518 c 4.0226,-2.32852 10.1215,-2.58725 13.6245,-0.51745 L 303.95,244.73123 c 3.503,1.94043 2.984,5.4342 -1.038,7.76272 z"
     id="path8"
     inkscape:connector-curvature="0"
     style="fill:#38e57e" />
  <path
     d="m 302.911,251.32969 -89.924,51.75082 c -4.023,2.32852 -10.122,2.58724 -13.625,0.51745 L 2.38435,190.13346 c -1.29762,-0.77617 -2.076167,-1.68171 -2.3356889,-2.71661 -0.2595221,1.42299 0.5190289,2.97534 2.3356889,4.01122 L 199.362,304.89158 c 3.503,1.94043 9.602,1.81107 13.625,-0.51745 l 89.924,-51.75082 c 2.466,-1.42298 3.634,-3.36341 3.244,-5.04611 -0.129,1.29362 -1.297,2.58823 -3.244,3.75249 z"
     id="path10"
     inkscape:connector-curvature="0"
     style="fill:#ffffff" />
  <path
     d="M 303.041,244.21378 198.713,304.37413 3.29285,191.94552 107.751,131.78419 303.041,244.21378 Z"
     id="path12"
     inkscape:connector-curvature="0"
     style="fill:#2ecc71" />
  <path
     d="m 61.8148,155.33107 -13.8844,8.02145 c -0.6488,0.38808 -1.5572,0.38808 -2.0763,0.12936 l -0.1297,-0.12936 c -0.519,-0.25873 -0.5191,-0.77618 0.1297,-1.16426 l 13.8845,-8.02145 c 0.6488,-0.38808 1.5572,-0.38808 2.0762,-0.12936 l 0.1297,0.12936 c 0.6488,0.25873 0.5191,0.77618 -0.1297,1.16426 z"
     id="path14"
     inkscape:connector-curvature="0"
     style="fill:#1c7540" />
  <path
     d="m 28.7262,192.85105 -1.687,1.0349 -4.1522,-2.45887 1.6868,-0.90553 4.1524,2.3295 z"
     id="path16"
     inkscape:connector-curvature="0"
     style="fill:#ffffff" />
  <path
     d="m 31.9702,191.039 -1.6869,1.03588 -4.1523,-2.45887 1.6869,-1.0349 4.1523,2.45789 z"
     id="path18"
     inkscape:connector-curvature="0"
     style="fill:#ffffff" />
  <path
     d="m 35.2142,189.09856 -1.8167,1.0349 -4.1524,-2.32852 1.8167,-1.0349 4.1524,2.32852 z"
     id="path20"
     inkscape:connector-curvature="0"
     style="fill:#ffffff" />
  <path
     d="m 38.4582,187.28749 -1.8167,1.0349 -4.1524,-2.45788 1.8167,-0.90554 4.1524,2.32852 z"
     id="path22"
     inkscape:connector-curvature="0"
     style="fill:#ffffff" />
  <path
     d="m 156.8,218.72646 c -13.625,7.89209 -35.684,7.89209 -49.309,0 -13.625,-7.89208 -13.625,-20.57155 0,-28.46364 13.625,-7.89208 35.684,-7.89208 49.309,0 13.625,7.89209 13.625,20.57156 0,28.46364 z"
     id="path24"
     inkscape:connector-curvature="0"
     style="opacity:0.6;fill:#17994c" />
  <path
     d="m 132.146,235.93361 c -13.885,0 -27.769,-3.10469 -38.2799,-9.1857 -10.3809,-5.95165 -15.9606,-13.84374 -15.9606,-22.38263 0,-8.40953 5.7095,-16.43098 15.9606,-22.38263 21.1509,-12.16103 55.5379,-12.16103 76.6889,0 10.381,5.95165 15.961,13.84374 15.961,22.38263 0,8.40953 -5.71,16.43098 -15.961,22.38263 -10.64,6.21037 -24.525,9.1857 -38.409,9.1857 z m 0,-61.9724 c -13.755,0 -27.38,2.97632 -37.8905,9.05634 -9.9916,5.82229 -15.5714,13.45565 -15.5714,21.47709 0,8.15081 5.5798,15.78417 15.5714,21.47709 20.8915,12.03168 54.8885,12.03168 75.6505,0 9.992,-5.82228 15.572,-13.45564 15.572,-21.47709 0,-8.1508 -5.58,-15.78416 -15.572,-21.47709 -10.381,-6.08002 -24.006,-9.05634 -37.76,-9.05634 z"
     id="path26"
     inkscape:connector-curvature="0"
     style="fill:#ffffff" />
  <path
     d="M 273.326,86.114284 123.582,-0.1806885 c -1.168,-0.6468885 -2.206,-0.7762623 -3.115,-0.2587512 l -2.206,1.2937783 c 0,0 0.519,0.1293721 1.038,0.1293721 -0.259,0.6468901 -0.389,1.4231622 -0.389,2.3288064 l 0,102.9843429 c 0,3.49377 2.076,7.37464 4.672,8.92699 l 149.874,86.29546 c 0.259,0.12936 0.519,0.25873 0.778,0.38809 l 0,1.16426 2.206,-1.29362 c 1.038,-0.51745 1.557,-1.94044 1.557,-3.7525 l 0,-102.98427 c 0,-3.49318 -2.076,-7.503902 -4.671,-8.926986 z"
     id="path28"
     inkscape:connector-curvature="0"
     style="fill:#efefef" />
  <path
     d="M 271.25,202.68456 121.375,116.38909 c -2.595,-1.42298 -4.671,-5.43321 -4.671,-8.92698 l 0,-102.8548548 c 0,-3.4931948 2.076,-5.0457311 4.671,-3.4932047 L 271.25,87.408894 c 2.595,1.423182 4.671,5.433905 4.671,8.927076 l 0,102.98418 c 0,3.23505 -2.206,4.78739 -4.671,3.36441 z"
     id="path30"
     inkscape:connector-curvature="0"
     style="fill:#2ecc71" />
  <path
     d="m 158.098,116.25973 -28.418,-16.43098 0,-3.75229 28.418,16.30142 0,3.88185 z"
     id="path32"
     inkscape:connector-curvature="0"
     style="fill:#ffffff" />
  <path
     d="m 193.004,136.31285 -28.418,-16.30161 0,-3.88186 28.418,16.43098 0,3.75249 z"
     id="path34"
     inkscape:connector-curvature="0"
     style="fill:#ffffff" />
  <path
     d="m 228.039,156.49533 -28.548,-16.43097 0,-3.75151 28.548,16.30162 0,3.88086 z"
     id="path36"
     inkscape:connector-curvature="0"
     style="fill:#ffffff" />
  <path
     d="m 262.945,176.54944 -28.418,-16.30162 0,-3.88185 28.418,16.43098 0,3.75249 z"
     id="path38"
     inkscape:connector-curvature="0"
     style="fill:#ffffff" />
  <path
     d="m 150.442,41.608149 -33.738,-2.716903 0,68.699244 c 0,3.49376 2.076,7.37463 4.671,8.92698 l 64.881,37.26126 c 16.739,-23.67625 12.976,-59.902021 12.976,-59.902021 l -48.79,-52.26856 z"
     id="path40"
     inkscape:connector-curvature="0"
     style="fill:#1e773e" />
  <path
     d="M 187.684,101.76919 138.893,49.500331 90.1031,45.61907 c 0,0 -7.7857,65.98263 48.7899,135.84613 56.576,-4.65704 48.791,-79.69601 48.791,-79.69601 z"
     id="path42"
     inkscape:connector-curvature="0"
     style="fill:#17994c" />
  <path
     d="m 90.1031,45.61907 -11.0297,6.33944 48.7896,4.010722 11.03,-6.339538 -48.7899,-4.010624 z"
     id="path44"
     inkscape:connector-curvature="0"
     style="fill:#1b5633" />
  <path
     d="M 176.654,108.10794 127.863,55.839771 107.75,53.769778 79.0732,51.829148 c 0,0 -7.7857,65.982932 48.7898,135.846432 56.706,-4.52768 48.791,-79.56764 48.791,-79.56764 z"
     id="path46"
     inkscape:connector-curvature="0"
     style="fill:#2ecc71" />
  <path
     d="M 176.654,108.10794 127.863,55.83987 79.0732,51.95851 c 1.4274,-0.776272 1.4274,-0.776272 1.4274,-0.776272 l 49.4394,4.010722 48.79,52.26816 c 0,0 6.488,62.61922 -35.555,76.9804 39.837,-15.6548 33.479,-76.33358 33.479,-76.33358 z"
     id="path48"
     inkscape:connector-curvature="0"
     style="fill:#ffffff" />
  <path
     d="M 170.684,108.88411 126.825,61.920586 108.788,60.109219 82.966,58.427312 c 0,0 -7.0072,59.255408 43.859,122.132358 50.996,-4.26895 43.859,-71.67556 43.859,-71.67556 z"
     id="path50"
     inkscape:connector-curvature="0"
     style="fill:#87e8ae" />
  <path
     d="m 205.461,272.28835 c -0.39,0 -0.649,-0.25873 -0.649,-0.64681 0,-0.38809 0.259,-0.64681 0.649,-0.77618 10.251,-0.77617 20.632,-3.88086 29.066,-8.79762 9.083,-5.30483 14.663,-10.47932 16.22,-15.52544 0.13,-0.38808 0.519,-0.51745 0.909,-0.38808 0.389,0.12936 0.519,0.51744 0.389,0.90553 -1.817,5.4342 -7.396,10.8684 -16.869,16.30162 -8.694,4.91675 -19.075,8.1508 -29.715,8.92698 z"
     id="path52"
     inkscape:connector-curvature="0"
     style="fill:#ffffff" />
  <path
     d="m 251.915,243.8257 c -0.389,0 -0.649,-0.25873 -0.649,-0.64682 -0.129,-4.01121 -3.114,-7.76272 -8.564,-10.99776 -11.938,-6.8562 -27.639,-6.8562 -43.989,0.12936 -0.389,0.12937 -0.778,0 -0.908,-0.38808 -0.13,-0.38809 0,-0.77618 0.389,-0.90554 16.869,-7.11591 32.83,-7.11591 45.287,0 5.839,3.36441 9.083,7.504 9.213,12.03266 -0.13,0.51745 -0.389,0.77618 -0.779,0.77618 z"
     id="path54"
     inkscape:connector-curvature="0"
     style="fill:#ffffff" />
  <path
     d="m 195.08,272.28835 c -5.839,-0.51745 -10.9,-1.94044 -14.663,-4.13959 -4.282,-2.45887 -6.877,-5.69293 -7.656,-9.5738 -0.13,-0.51744 0,-1.03588 0.389,-1.55333 0.649,-0.77617 1.947,-1.16426 3.374,-1.16426 1.557,0.12936 2.855,0.77617 3.114,1.81206 0.779,2.58724 2.725,4.91576 5.71,6.59747 10.64,6.08101 31.142,4.26994 45.676,-4.13959 9.343,-5.4342 14.403,-10.86741 14.403,-15.91353 0,-3.49376 -2.465,-6.85718 -7.266,-9.57379 -12.328,-7.11591 -28.937,-5.56356 -45.676,4.13959 -6.099,3.49377 -10.381,7.76272 -12.198,12.03266 -0.389,0.90554 -1.557,1.42299 -2.984,1.55235 -1.428,0 -2.596,-0.51745 -3.115,-1.29362 -0.259,-0.51745 -0.389,-1.0349 -0.129,-1.55235 2.465,-5.04611 7.396,-9.70414 14.403,-13.71437 0.389,-0.12936 0.779,-0.12936 0.908,0.25873 0.13,0.38808 0.13,0.77617 -0.259,0.90553 -6.748,3.88185 -11.549,8.40953 -13.885,13.19692 0,0.12936 0,0.12936 0,0.25873 0.26,0.38808 0.909,0.64681 1.947,0.64681 1.038,0 1.557,-0.38809 1.687,-0.64681 1.946,-4.52867 6.488,-9.05635 12.846,-12.67948 17.258,-9.96187 34.387,-11.38486 47.103,-4.13959 5.191,2.97533 7.916,6.72684 7.916,10.73805 0,5.56357 -5.061,11.38487 -15.052,17.07779 -14.923,8.5389 -36.074,10.47933 -47.104,4.13959 -3.374,-1.94043 -5.58,-4.52767 -6.358,-7.37364 -0.13,-0.38809 -0.908,-0.77618 -1.947,-0.77618 -1.038,0 -1.946,0.25873 -2.205,0.64682 -0.13,0.12936 -0.13,0.25872 -0.13,0.38808 0.649,3.36342 3.114,6.33875 7.007,8.5389 3.633,2.06979 8.434,3.49278 14.014,4.01023 0.389,0 0.649,0.38808 0.649,0.77617 0.13,0.25872 -0.13,0.51745 -0.519,0.51745 z"
     id="path56"
     inkscape:connector-curvature="0"
     style="fill:#ffffff" />
  <path
     d="m 212.208,265.3018 c -1.038,0 -2.205,-0.38809 -2.725,-1.0349 -0.389,-0.51745 -0.519,-1.0349 -0.389,-1.55234 0.26,-0.77618 1.038,-1.29363 2.076,-1.55235 4.672,-0.90554 9.084,-2.58725 12.976,-4.78739 6.359,-3.62214 9.862,-7.24527 10.381,-10.47933 0.26,-1.55235 -0.389,-3.10469 -1.687,-4.52768 -0.519,-0.51745 -0.648,-1.03588 -0.519,-1.55333 0.13,-0.77617 0.779,-1.29362 1.817,-1.68171 1.687,-0.64681 3.763,-0.25872 4.671,0.77617 1.817,1.94142 2.725,4.14058 2.596,6.4691 -0.26,3.36342 -2.725,6.85719 -7.267,10.34997 -0.259,0.25872 -0.779,0.12936 -0.908,-0.12936 -0.26,-0.25873 -0.13,-0.77618 0.129,-0.90554 4.283,-3.23406 6.489,-6.33974 6.748,-9.31507 0.13,-1.94043 -0.519,-3.7515 -2.206,-5.4342 -0.519,-0.51745 -2.076,-0.90553 -3.244,-0.38808 -0.649,0.25872 -0.908,0.51744 -0.908,0.64681 0,0 0,0.12936 0.13,0.38907 1.686,1.68171 2.335,3.62214 2.076,5.56258 -0.519,3.75249 -4.282,7.63335 -11.03,11.51422 -4.023,2.32951 -8.564,4.01122 -13.365,4.91675 -0.649,0.12937 -1.038,0.38809 -1.038,0.64681 0,0 0,0.12937 0.129,0.25873 0.39,0.38809 1.428,0.64681 2.466,0.51745 5.32,-1.16426 10.381,-3.1047 14.663,-5.56258 0.389,-0.12936 0.778,-0.12936 0.908,0.25873 0.13,0.38808 0.13,0.77617 -0.259,0.90553 -4.412,2.58725 -9.732,4.52768 -15.053,5.69194 -0.389,-0.12936 -0.778,0 -1.168,0 z"
     id="path58"
     inkscape:connector-curvature="0"
     style="fill:#ffffff" />
  <path
     d="m 201.438,266.33769 -0.13,0 c -5.06,-0.12937 -9.343,-1.16525 -12.457,-2.97632 -3.633,-2.0698 -5.45,-4.91577 -5.45,-8.28017 0,-5.17449 4.542,-10.86742 12.068,-15.26672 12.068,-6.85719 24.006,-9.18571 33.868,-6.20939 1.038,0.25873 1.816,0.90554 1.946,1.68171 0.13,0.51745 0,1.16426 -0.389,1.68171 -0.909,1.0349 -2.855,1.42299 -4.542,0.90554 -7.007,-2.0698 -15.831,-0.64681 -24.784,4.14057 -0.39,0.12937 -0.519,0.38809 -0.519,0.51745 0,0.12937 0.13,0.25873 0.389,0.38809 0.779,0.38809 2.076,0.38809 2.855,0 8.953,-4.78739 17.388,-5.56356 22.967,-2.32951 2.206,1.29461 3.504,2.97632 3.504,4.91675 0,3.1047 -3.114,6.59847 -9.213,10.09125 -8.435,4.78739 -19.464,6.33973 -24.655,3.3644 -1.686,-0.90553 -2.595,-2.20014 -2.854,-3.88185 -0.26,-2.0698 0.648,-4.39832 2.854,-6.72783 0.13,-0.12936 0.13,-0.25872 0.13,-0.25872 0,-0.12936 -0.259,-0.38809 -0.649,-0.51745 -1.038,-0.38809 -2.465,-0.12936 -2.854,0.38809 -2.336,2.58823 -3.504,5.17547 -3.115,7.50399 0.26,1.81107 1.428,3.36441 3.504,4.52867 2.076,1.16426 4.931,1.94043 8.175,2.06979 1.687,0.12937 2.984,0.90554 3.114,2.0698 0,0.51745 -0.13,0.90554 -0.519,1.29362 -1.038,0.51745 -2.076,0.90653 -3.244,0.90653 z m 18.945,-32.7326 c -7.526,0 -15.831,2.45789 -24.265,7.24429 -7.137,4.14058 -11.419,9.31605 -11.419,13.97309 0,2.84597 1.687,5.30484 4.801,7.11591 2.985,1.68171 7.007,2.71661 11.808,2.84597 0.909,0 1.557,-0.25872 1.817,-0.51745 0.13,-0.12936 0.13,-0.12936 0.13,-0.25872 0,-0.38809 -0.649,-0.77618 -1.817,-0.90554 -3.504,-0.25872 -6.488,-1.0349 -8.824,-2.32852 -2.335,-1.42298 -3.763,-3.23504 -4.152,-5.4342 -0.389,-2.71661 0.779,-5.69292 3.504,-8.53889 0.908,-1.0349 2.984,-1.29363 4.411,-0.64681 0.779,0.38808 1.298,0.90553 1.428,1.42298 0.129,0.51745 0,1.0349 -0.39,1.42299 -1.816,1.94142 -2.725,4.01121 -2.465,5.56356 0.13,1.16426 0.908,2.06979 2.206,2.84597 4.801,2.84695 15.312,1.29461 23.357,-3.36342 5.58,-3.23406 8.564,-6.33974 8.564,-8.92698 0,-1.42299 -0.908,-2.71661 -2.725,-3.75249 -5.19,-2.97533 -13.106,-2.0698 -21.67,2.45887 -1.168,0.64681 -2.984,0.64681 -4.152,0 -0.649,-0.38809 -1.038,-1.0349 -1.038,-1.68171 0,-0.6478 0.389,-1.29461 1.167,-1.6827 9.343,-4.91576 18.556,-6.46811 25.823,-4.26895 1.297,0.38808 2.595,0 3.114,-0.51745 0.13,-0.25873 0.13,-0.25873 0.13,-0.38809 -0.13,-0.25872 -0.389,-0.51745 -1.038,-0.77617 -2.466,-0.51745 -5.32,-0.90554 -8.305,-0.90554 z"
     id="path60"
     inkscape:connector-curvature="0"
     style="fill:#ffffff" />
  <path
     d="m 204.682,257.28035 c -1.687,0 -2.984,-0.25872 -4.022,-0.90553 -1.038,-0.64681 -1.687,-1.55235 -1.687,-2.71661 0,-2.45788 2.595,-5.4342 7.007,-7.89208 7.137,-4.13959 13.365,-5.17548 17.128,-3.10469 1.557,0.90553 1.946,2.06979 1.946,2.84596 0,1.94044 -1.816,4.26995 -5.449,6.59847 -1.168,0.77617 -3.115,0.77617 -4.283,0.12936 -0.648,-0.38809 -1.038,-0.90554 -1.038,-1.55235 0,-0.64681 0.26,-1.16525 0.909,-1.55333 2.984,-1.94044 2.984,-2.71661 2.984,-2.71661 -0.778,-0.51745 -3.374,-0.12936 -7.915,2.58725 -3.114,1.81205 -4.412,3.3644 -4.412,3.75249 0,0.38808 -0.26,0.64681 -0.649,0.64681 -0.389,0 -0.649,-0.25873 -0.649,-0.64681 0,-1.81107 3.893,-4.26994 5.191,-5.04612 3.114,-1.81107 7.266,-3.7515 9.213,-2.58724 0.519,0.25872 0.778,0.64681 0.778,1.16426 0,0.64681 -0.389,1.81107 -3.633,3.88185 -0.26,0.12936 -0.26,0.25873 -0.26,0.38809 0,0.12936 0.13,0.25872 0.39,0.38809 0.778,0.51744 2.206,0.38808 2.854,0 4.283,-2.84696 4.931,-4.65803 4.931,-5.43421 0,-0.64681 -0.519,-1.29362 -1.297,-1.81107 -1.557,-0.90553 -6.229,-2.45788 -15.701,3.1047 -3.893,2.19916 -6.358,4.91675 -6.358,6.72782 0,0.64681 0.259,1.16426 1.038,1.55235 1.687,0.90553 4.931,0.90553 8.694,-0.12937 0.389,-0.12936 0.778,0.12937 0.778,0.51745 0.13,0.38809 -0.13,0.77618 -0.519,0.77618 -2.336,0.77617 -4.282,1.03489 -5.969,1.03489 z"
     id="path62"
     inkscape:connector-curvature="0"
     style="fill:#ffffff" />
  <path
     d="m 193.393,233.86382 c -0.13,0 -0.13,0 -0.259,0 l -17.908,-10.35096 c -0.259,-0.12936 -0.259,-0.38808 -0.129,-0.64681 0.129,-0.25872 0.389,-0.25872 0.649,-0.12936 l 17.907,10.34997 c 0.259,0.12936 0.259,0.38808 0.129,0.6478 -0.129,0.12936 -0.259,0.12936 -0.389,0.12936 z"
     id="path64"
     inkscape:connector-curvature="0"
     style="fill:#ffffff" />
  <path
     d="m 130.113,212.37093 -9.502,4.71629 -1.699,-0.84333 -0.048,-3.63498 c -0.013,-0.70507 -0.051,-1.29856 -0.115,-1.78144 -0.07,-0.48585 -0.23,-0.89863 -0.48,-1.23833 -0.243,-0.34365 -0.64,-0.65174 -1.19,-0.92429 -0.678,-0.33674 -1.385,-0.49375 -2.121,-0.47203 -0.742,0.0188 -1.433,0.18763 -2.073,0.50461 -0.608,0.30218 -1.05,0.64188 -1.325,1.02009 -0.275,0.3713 -0.467,0.80382 -0.576,1.2956 l -2.726,-0.12344 c 0.058,-0.35945 0.17,-0.71692 0.336,-1.07242 0.173,-0.35847 0.455,-0.71396 0.845,-1.0665 0.384,-0.35649 0.928,-0.70902 1.632,-1.05761 0.889,-0.4424 1.817,-0.74359 2.783,-0.90554 0.96,-0.16491 1.894,-0.19355 2.803,-0.0859 0.915,0.10468 1.746,0.34266 2.495,0.71495 0.755,0.37426 1.302,0.79493 1.641,1.26202 0.339,0.46709 0.544,0.99441 0.615,1.58197 0.064,0.5846 0.076,1.2482 0.038,1.9908 l -0.058,2.38283 0.106,0.0523 6.642,-3.29726 1.977,0.98158 z m 8.676,-7.36476 -1.9,0.94306 3.081,1.52864 -2.227,1.106 -3.081,-1.52963 -6.382,3.16789 -1.709,-0.84727 -2.869,-7.78939 2.197,-1.09118 9.118,4.5257 1.901,-0.94306 1.871,0.92924 z m -5.998,1.11883 -3.484,-1.72911 c -0.288,-0.14318 -0.576,-0.28933 -0.864,-0.43845 -0.288,-0.15503 -0.563,-0.30513 -0.826,-0.44733 -0.262,-0.14319 -0.502,-0.27453 -0.719,-0.39599 -0.224,-0.12344 -0.41,-0.22515 -0.557,-0.30415 l -0.077,0.0375 c 0.135,0.18762 0.262,0.38413 0.384,0.59052 0.115,0.20342 0.214,0.40882 0.298,0.61521 l 1.554,4.2018 4.291,-2.13003 z m 2.918,-10.46155 8.801,9.56194 -2.112,1.04774 -8.801,-9.56195 2.112,-1.04773 z m 16.681,5.65046 -6.546,-8.71862 -7.285,3.61622 -1.977,-0.98157 9.713,-4.82097 1.545,0.7663 6.978,8.93291 -2.428,1.20573 z"
     id="path66"
     inkscape:connector-curvature="0"
     style="fill:#ffffff" />
</svg>
