<?xml version="1.0" encoding="UTF-8" standalone="no"?>
<svg
   xmlns:dc="http://purl.org/dc/elements/1.1/"
   xmlns:cc="http://creativecommons.org/ns#"
   xmlns:rdf="http://www.w3.org/1999/02/22-rdf-syntax-ns#"
   xmlns:svg="http://www.w3.org/2000/svg"
   xmlns="http://www.w3.org/2000/svg"
   xmlns:sodipodi="http://sodipodi.sourceforge.net/DTD/sodipodi-0.dtd"
   xmlns:inkscape="http://www.inkscape.org/namespaces/inkscape"
   width="306"
   height="335"
   viewBox="0 0 306 335"
   id="svg2"
   version="1.1"
   inkscape:version="0.91 r13725"
   sodipodi:docname="group-invest.svg"
   style="fill:none">
  <metadata
     id="metadata396">
    <rdf:RDF>
      <cc:Work
         rdf:about="">
        <dc:format>image/svg+xml</dc:format>
        <dc:type
           rdf:resource="http://purl.org/dc/dcmitype/StillImage" />
        <dc:title></dc:title>
      </cc:Work>
    </rdf:RDF>
  </metadata>
  <sodipodi:namedview
     pagecolor="#ffffff"
     bordercolor="#666666"
     borderopacity="1"
     objecttolerance="10"
     gridtolerance="10"
     guidetolerance="10"
     inkscape:pageopacity="0"
     inkscape:pageshadow="2"
     inkscape:window-width="1920"
     inkscape:window-height="1017"
     id="namedview394"
     showgrid="false"
     inkscape:zoom="0.71515152"
     inkscape:cx="-98.694914"
     inkscape:cy="165"
     inkscape:window-x="-8"
     inkscape:window-y="-8"
     inkscape:window-maximized="1"
     inkscape:current-layer="svg2" />
  <path
     d="m 153.085,334.393 c -39.172,0 -78.1742,-7.15068 -107.9792,-21.59545 C 16.1524,298.78197 0.142822,280.0474 0.142822,260.16767 c 0,-19.87872 16.009578,-38.6143 44.962978,-52.62989 59.6102,-28.88851 156.5192,-28.88851 215.9582,0 28.954,14.01559 44.793,32.60777 44.793,52.62989 0,19.87973 -16.009,38.6143 -44.963,52.62988 -29.635,14.44477 -68.807,21.59545 -107.809,21.59545 z m -0.17,-147.5923 c -38.832,0 -77.8338,7.15068 -107.4685,21.59545 -28.6129,13.8732 -44.28178,32.32198 -44.28178,51.77152 0,19.59395 15.66888,37.89933 44.28178,51.77253 59.2695,28.74613 155.6675,28.74613 214.9365,0 28.613,-13.8732 44.282,-32.32198 44.282,-51.77253 0,-19.59294 -15.669,-37.89832 -44.282,-51.77152 C 230.748,193.95138 191.917,186.8007 152.915,186.8007 Z"
     id="path4"
     inkscape:connector-curvature="0"
     style="fill:#2ecc71" />
  <path
     d="m 230.238,297.49543 c -42.579,20.73709 -111.727,20.73709 -154.4756,0 -42.5786,-20.73708 -42.5786,-54.20321 0,-74.9403 42.5786,-20.73708 111.7266,-20.73708 154.4756,0 42.578,20.73709 42.578,54.3456 0,74.9403 z"
     id="path6"
     inkscape:connector-curvature="0"
     style="fill:#0f632d" />
  <path
     d="M 222.573,54.368339 110.676,0.1652817 c -1.873,-0.85809572 -3.406,-1.00110481 -4.769,-0.429041 l -7.6637,3.7184102 4.9387,2.5742866 0,219.9586425 c 0,4.5766 3.236,9.86817 7.324,11.86967 l 110.534,53.63165 -1.533,4.71898 7.664,-3.71823 c 1.533,-0.71497 2.555,-2.43068 2.555,-5.00578 l 0,-221.245254 c 0.17,-4.576498 -3.066,-9.868065 -7.153,-11.870277 z"
     id="path8"
     inkscape:connector-curvature="0"
     style="fill:#1e7742" />
  <path
     d="M 214.738,295.9221 103.012,241.5765 c -4.0874,-2.00252 -7.3233,-7.29408 -7.3233,-11.87068 l 0,-221.1024941 c 0,-4.5764983 3.2359,-6.5787099 7.3233,-4.719512 L 214.909,58.086776 c 4.087,2.002212 7.323,7.293778 7.323,11.870276 l 0,221.245048 c 0,4.5766 -3.406,6.72252 -7.494,4.72 z"
     id="path10"
     inkscape:connector-curvature="0"
     style="fill:#38e57e" />
  <path
     d="m 222.232,291.3455 -126.5433,-61.3539 0,-221.5314302 126.5433,61.3537872 0,221.531543 z"
     id="path12"
     inkscape:connector-curvature="0"
     style="fill:#2ecc71" />
  <path
     d="M 201.965,295.63632 89.0466,240.86153 C 84.7887,238.85902 82.234,234.9984 82.234,230.85098 l 0,-208.231532 c 0,-2.860273 3.7469,-4.719491 6.8126,-3.289355 L 201.965,74.105181 c 4.258,2.002212 6.812,5.863642 6.812,10.01116 l 0,208.374329 c 0,2.71748 -3.917,4.5766 -6.812,3.14565 z"
     id="path14"
     inkscape:connector-curvature="0"
     style="opacity:0.4;fill:#efefef" />
  <path
     d="m 204.179,296.49468 c -0.851,0 -1.703,-0.1434 -2.555,-0.57258 L 88.706,241.14732 c -4.4282,-2.14592 -7.1532,-6.14994 -7.1532,-10.29735 l 0,-208.231132 c 0,-1.573232 0.8516,-2.860375 2.5547,-3.575443 1.5328,-0.715069 3.4063,-0.715069 4.9392,0 L 201.965,73.818482 c 4.428,2.145205 7.153,6.14973 7.153,10.297147 l 0,208.374021 c 0,1.57333 -0.851,2.86088 -2.554,3.57585 -0.682,0.28578 -1.533,0.42918 -2.385,0.42918 z M 86.6622,19.186388 c -0.6812,0 -1.3625,0.143095 -2.0437,0.429082 -1.1922,0.572075 -2.0438,1.716225 -2.0438,2.860375 l 0,208.374125 c 0,4.00401 2.5547,7.57986 6.6422,9.58238 l 112.9181,54.77478 c 1.193,0.57157 2.725,0.57157 4.088,0 1.192,-0.57258 2.044,-1.71673 2.044,-2.85986 l 0,-208.374634 c 0,-4.004424 -2.555,-7.579867 -6.643,-9.582079 L 88.706,19.61547 c -0.6812,-0.285987 -1.3625,-0.429082 -2.0438,-0.429082 z"
     id="path16"
     inkscape:connector-curvature="0"
     style="fill:#efefef" />
  <path
     d="m 167.221,40.352858 -16.691,-8.15184 c -0.511,-0.285987 -1.022,-1.001055 -1.022,-1.716123 0,-0.572075 0.511,-0.858164 1.022,-0.715069 l 16.691,8.151738 c 0.511,0.286089 1.022,1.001157 1.022,1.716225 0,0.715069 -0.511,1.001055 -1.022,0.715069 z"
     id="path18"
     inkscape:connector-curvature="0"
     style="fill:#1c7540" />
  <path
     d="m 174.034,166.06362 c 2.214,1.14415 4.087,0 4.087,-2.57408 l 0,-76.942618 c 0,-2.574286 -1.873,-5.577655 -4.087,-6.721805 L 82.4046,35.347278 c -0.1703,0.858163 -0.3406,1.859218 -0.3406,2.71728 l 0,83.378232 91.97,44.62083 z"
     id="path20"
     inkscape:connector-curvature="0"
     style="opacity:0.2;fill:#041860" />
  <path
     d="m 105.227,137.60327 0,1.85912 c -1.874,-0.71497 -4.428,-1.14415 -7.3238,-0.85735 -10.3891,0.57156 -22.4814,7.57986 -26.9096,15.44551 -1.1922,2.1449 -1.8735,4.14742 -1.7032,6.00654 l -2.0438,-0.57259 2.2142,2.86089 c 1.8734,2.43068 5.6203,3.86163 10.9001,3.43245 10.3891,-0.57259 22.4811,-7.57987 26.9101,-15.44552 2.214,-3.86163 2.214,-7.29408 0.34,-9.72578 l -2.384,-3.00327 z"
     id="path22"
     inkscape:connector-curvature="0"
     style="fill:#f4a856" />
  <path
     d="m 105.056,147.32905 c -4.598,7.86565 -16.52,14.73055 -26.9092,15.44552 -10.3892,0.57156 -15.158,-5.14919 -10.5595,-13.01483 4.5985,-7.86565 16.5205,-14.73055 26.9097,-15.44552 10.389,-0.71497 14.988,5.14817 10.559,13.01483 z"
     id="path24"
     inkscape:connector-curvature="0"
     style="fill:#fccc6b" />
  <path
     d="m 105.056,147.32905 c -4.598,7.86565 -16.52,14.73055 -26.9092,15.44552 -10.3892,0.57156 -15.158,-5.14919 -10.5595,-13.01483 4.5985,-7.86565 16.5205,-14.73055 26.9097,-15.44552 10.389,-0.71497 14.988,5.14817 10.559,13.01483 z"
     id="path26"
     inkscape:connector-curvature="0"
     style="fill:url(#paint0_radial_3016_73)" />
  <path
     d="m 92.7939,156.33885 c -4.0875,2.43068 -9.0266,4.00402 -13.4548,4.2898 -4.2578,0.2868 -7.6641,-0.71497 -9.3673,-2.85986 -1.7031,-2.1449 -1.7031,-5.14817 0.1704,-8.29484 3.7469,-6.57911 13.9657,-12.44225 22.822,-13.01483 4.2579,-0.28578 7.6638,0.71497 9.3678,2.86088 1.703,2.1449 1.703,5.14817 -0.171,8.29484 -1.873,3.28905 -5.4499,6.29231 -9.3671,8.72401 z M 79.85,140.89334 c -4.0875,2.2883 -7.4938,5.29156 -9.3672,8.58061 -1.8735,3.14667 -1.8735,6.00654 -0.3406,8.00905 1.7031,2.0015 4.7687,3.00327 9.0266,2.71749 8.686,-0.57259 18.7346,-6.29334 22.4812,-12.87144 1.874,-3.14666 1.874,-6.00755 0.341,-8.00905 -1.703,-2.00251 -4.7689,-3.00326 -9.0268,-2.71748 -4.2578,0.28578 -9.0266,2.00252 -13.1142,4.29082 z"
     id="path28"
     inkscape:connector-curvature="0"
     style="fill:#f4a856" />
  <path
     d="m 101.991,147.47144 c -3.7471,6.57911 -13.9659,12.44224 -22.6519,12.87143 -8.686,0.57258 -12.6033,-4.4332 -8.8564,-11.01232 3.747,-6.5781 13.9658,-12.44225 22.6518,-12.87143 8.6865,-0.42918 12.6035,4.4332 8.8565,11.01232 z"
     id="path30"
     inkscape:connector-curvature="0"
     style="fill:url(#paint1_radial_3016_73)" />
  <path
     d="m 70.9936,150.04552 c 3.7469,-6.5781 13.9657,-12.44225 22.6517,-12.87143 4.0875,-0.28579 7.1537,0.71598 8.8567,2.4317 -1.533,-2.1449 -4.7691,-3.43245 -9.3676,-3.14667 -8.686,0.57258 -18.9049,6.29333 -22.6518,12.87143 -2.0438,3.43245 -1.8735,6.43572 0,8.43824 -1.3625,-1.85912 -1.3625,-4.5766 0.511,-7.72327 z"
     id="path32"
     inkscape:connector-curvature="0"
     style="fill:#f4a856" />
  <path
     d="m 104.546,146.75647 c -4.5987,7.86565 -16.5206,14.73055 -26.9098,15.44551 -4.9391,0.28681 -8.686,-0.85734 -10.5595,-3.00326 1.8735,2.57408 5.6204,4.00503 11.0704,3.71823 10.3892,-0.57156 22.4819,-7.57987 26.9099,-15.44551 2.384,-4.14742 2.214,-7.57987 0,-10.01055 1.703,2.1449 1.533,5.43395 -0.511,9.29558 z"
     id="path34"
     inkscape:connector-curvature="0"
     style="fill:#fce586" />
  <path
     d="m 101.82,156.62464 c 2.385,-2.00252 4.258,-4.14742 5.45,-6.43572 2.214,-3.86163 2.214,-7.29408 0.341,-9.72477 l -2.384,-2.86088 c 0,0 0,-0.14238 -0.171,-0.14238 l -0.17,-0.1434 c -2.044,-2.1449 -5.6204,-3.43245 -10.7298,-3.14667 -5.7907,0.42918 -12.2627,2.71748 -17.5424,6.14993 l 18.7345,16.30389 6.4717,0 z"
     id="path36"
     inkscape:connector-curvature="0"
     style="fill:#f4a856" />
  <path
     d="M 162.282,86.260936 29.2665,21.760675 C 28.2446,21.188701 27.2227,21.1886 26.5414,21.617681 l -2.0438,1.001157 c 0,0 0.511,0 0.8516,0.142993 -0.1703,0.429082 -0.3406,1.001055 -0.3406,1.716225 l 0,76.942614 c 0,2.57408 1.8734,5.57735 4.0875,6.7215 l 133.0159,64.50057 c 0.17,0.14238 0.511,0.14238 0.681,0.28578 l 0,0.85837 2.044,-1.00177 c 0.851,-0.42817 1.362,-1.42994 1.362,-2.85987 l 0,-77.085604 c 0.17,-2.574287 -1.703,-5.577655 -3.917,-6.57871 z"
     id="path38"
     inkscape:connector-curvature="0"
     style="fill:#ffffff" />
  <path
     d="M 160.238,173.35872 27.2228,108.85815 c -2.2141,-1.14415 -4.0875,-4.14741 -4.0875,-6.7215 l 0,-76.942915 c 0,-2.574287 1.8734,-3.718437 4.0875,-2.574287 l 133.0152,64.50016 c 2.214,1.14415 4.088,4.147518 4.088,6.721805 l 0,76.942207 c 0.17,2.5751 -1.703,3.71925 -4.088,2.5751 z"
     id="path40"
     inkscape:connector-curvature="0"
     style="fill:#2ecc71" />
  <path
     d="m 59.923,108.71475 -25.2066,-12.156668 0,-2.860375 25.2066,12.156163 0,2.86088 z"
     id="path42"
     inkscape:connector-curvature="0"
     style="fill:#ffffff" />
  <path
     d="m 90.9205,123.73109 -25.2065,-12.15647 0,-2.85987 25.2065,12.29885 0,2.71749 z"
     id="path44"
     inkscape:connector-curvature="0"
     style="fill:#ffffff" />
  <path
     d="m 121.917,138.89082 -25.2062,-12.29987 0,-2.85986 25.2062,12.29986 0,2.85987 z"
     id="path46"
     inkscape:connector-curvature="0"
     style="fill:#ffffff" />
  <path
     d="m 152.915,153.90715 -25.207,-12.29885 0,-2.86088 25.207,12.29987 0,2.85986 z"
     id="path48"
     inkscape:connector-curvature="0"
     style="fill:#ffffff" />
  <path
     d="M 160.239,87.119709 27.3934,22.762747 c -2.2141,-1.14415 -4.0876,0 -4.0876,2.574286 l 0,76.942007 c 0,0.42918 10e-5,1.00176 0.1704,1.43095 7.1532,-4.290923 35.766,-17.591336 90.7778,7.86565 19.926,9.29558 36.788,8.00905 50.242,2.0015 l 0,-19.735626 c 0,-2.574286 -1.873,-5.577655 -4.257,-6.721805 z"
     id="path50"
     inkscape:connector-curvature="0"
     style="opacity:0.2;fill:#00ff67" />
  <path
     d="M 78.3173,83.258279 C 97.0519,81.256068 112.551,76.393583 125.494,70.386948 L 27.3934,22.762747 c -2.2141,-1.14415 -4.0876,0 -4.0876,2.574286 l 0,73.653055 c 9.708,-6.578812 26.5691,-12.585447 55.0115,-15.731809 z"
     id="path52"
     inkscape:connector-curvature="0"
     style="opacity:0.2;fill:#1d723f" />
  <path
     d="m 108.463,269.46427 -1.192,1.57333 c -1.022,-1.57333 -2.896,-3.00327 -5.45,-4.29082 -9.027,-4.4332 -23.5038,-4.4332 -32.5304,-0.1434 -2.5547,1.14415 -4.2579,2.5751 -5.4501,4.14844 l -1.3625,-1.43095 0,3.43245 c -0.1703,2.86088 2.0438,5.86415 6.6422,8.15245 9.0267,4.4332 23.5034,4.4332 32.5298,0.14238 4.428,-2.1449 6.813,-5.00477 6.813,-7.86565 l 0,-3.71823 z"
     id="path54"
     inkscape:connector-curvature="0"
     style="fill:#f4a856" />
  <path
     d="m 101.65,277.32992 c -9.0264,4.29081 -23.6734,4.29081 -32.5298,-0.1434 -9.0266,-4.4332 -8.8563,-11.44049 0,-15.8747 9.0267,-4.2898 23.6737,-4.2898 32.5298,0.1434 9.197,4.4332 9.027,11.4415 0,15.8747 z"
     id="path56"
     inkscape:connector-curvature="0"
     style="fill:#fccc6b" />
  <path
     d="m 101.65,277.32992 c -9.0264,4.29081 -23.6734,4.29081 -32.5298,-0.1434 -9.0266,-4.4332 -8.8563,-11.44049 0,-15.8747 9.0267,-4.2898 23.6737,-4.2898 32.5298,0.1434 9.197,4.4332 9.027,11.4415 0,15.8747 z"
     id="path58"
     inkscape:connector-curvature="0"
     style="fill:url(#paint2_radial_3016_73)" />
  <path
     d="m 85.6406,278.90325 c -5.1094,0 -10.0485,-1.00075 -13.9658,-2.86088 -3.7469,-1.85912 -5.7906,-4.2898 -5.7906,-6.86389 0,-2.5751 2.0437,-5.00578 5.7906,-6.72251 7.6642,-3.71824 19.9268,-3.57484 27.591,0.1434 3.7472,1.85911 5.7902,4.29081 5.7902,6.8649 0,2.57408 -2.043,5.00578 -5.7902,6.7215 -3.7469,1.71673 -8.6861,2.71748 -13.6252,2.71748 z M 85.3,260.16868 c -4.9391,0 -9.7079,0.85735 -13.4548,2.71647 -3.5766,1.71673 -5.6204,4.00503 -5.6204,6.43572 0,2.4317 1.8734,4.72 5.45,6.57911 7.4939,3.71824 19.5862,3.71824 27.2503,0.14239 3.5769,-1.71572 5.6199,-4.00402 5.6199,-6.4347 0,-2.4317 -1.873,-4.72 -5.4496,-6.57912 -3.7469,-2.00252 -8.686,-2.85987 -13.7954,-2.85987 z"
     id="path60"
     inkscape:connector-curvature="0"
     style="fill:#f4a856" />
  <path
     d="m 99.0956,276.04237 c -7.4939,3.57585 -19.7565,3.57585 -27.4207,-0.14239 -7.4938,-3.71823 -7.4938,-9.58238 0,-13.30061 7.4939,-3.57585 19.7565,-3.57585 27.4207,0.14238 7.6644,3.71925 7.6644,9.58238 0,13.30062 z"
     id="path62"
     inkscape:connector-curvature="0"
     style="fill:url(#paint3_radial_3016_73)" />
  <path
     d="m 71.845,263.45773 c 7.4938,-3.57585 19.7564,-3.57585 27.4206,0.14239 3.5764,1.71673 5.4504,4.00503 5.6204,6.29333 0.17,-2.57408 -1.703,-5.14918 -5.6204,-7.0083 -7.4938,-3.71823 -19.7565,-3.71823 -27.4206,-0.14238 -3.9173,1.85911 -5.9611,4.4332 -5.6204,7.00728 0.1703,-2.43068 2.0438,-4.5766 5.6204,-6.29232 z"
     id="path64"
     inkscape:connector-curvature="0"
     style="fill:#f4a856" />
  <path
     d="m 101.65,276.47155 c -9.0264,4.29082 -23.6734,4.29082 -32.5298,-0.14238 -4.2578,-2.14592 -6.4719,-4.86239 -6.6422,-7.57987 -0.1703,3.00327 2.0438,6.00653 6.6422,8.29483 9.0267,4.4332 23.5034,4.4332 32.5298,0.14239 4.769,-2.28729 6.983,-5.29157 6.813,-8.29484 -0.17,2.86089 -2.385,5.57837 -6.813,7.57987 z"
     id="path66"
     inkscape:connector-curvature="0"
     style="fill:#fce586" />
  <path
     d="m 112.55,264.60188 -1.192,1.57334 c -1.022,-1.57334 -2.895,-3.00327 -5.45,-4.29082 -9.0267,-4.4332 -23.5034,-4.4332 -32.5301,-0.1434 -2.5547,1.14415 -4.2579,2.57408 -5.4501,4.14742 l -1.3625,-1.42994 0,3.43245 c -0.1703,2.85987 2.0438,5.86415 6.6423,8.15245 9.0266,4.4332 23.5034,4.4332 32.5304,0.14239 4.428,-2.1449 6.812,-5.00579 6.812,-7.86565 l 0,-3.71824 z"
     id="path68"
     inkscape:connector-curvature="0"
     style="fill:#f4a856" />
  <path
     d="m 105.738,272.46753 c -9.027,4.29082 -23.674,4.29082 -32.5304,-0.1434 -9.0266,-4.4332 -8.8563,-11.44048 0,-15.8747 9.0267,-4.2898 23.6738,-4.2898 32.5304,0.1434 9.026,4.5766 9.026,11.58389 0,15.8747 z"
     id="path70"
     inkscape:connector-curvature="0"
     style="fill:#fccc6b" />
  <path
     d="m 105.738,272.46753 c -9.027,4.29082 -23.674,4.29082 -32.5304,-0.1434 -9.0266,-4.4332 -8.8563,-11.44048 0,-15.8747 9.0267,-4.2898 23.6738,-4.2898 32.5304,0.1434 9.026,4.5766 9.026,11.58389 0,15.8747 z"
     id="path72"
     inkscape:connector-curvature="0"
     style="fill:url(#paint4_radial_3016_73)" />
  <path
     d="m 89.5578,274.04087 c -5.1095,0 -10.0486,-1.00177 -13.9658,-2.86089 -3.747,-1.85911 -5.7907,-4.2898 -5.7907,-6.8649 0,-2.57408 2.0437,-5.00476 5.7907,-6.7215 7.6641,-3.71823 19.9268,-3.57483 27.591,0.1434 3.747,1.85912 5.791,4.2898 5.791,6.8649 0,2.57409 -2.044,5.00477 -5.791,6.7215 -3.747,1.85912 -8.6861,2.71749 -13.6252,2.71749 z m -0.1704,-18.73559 c -4.9391,0 -9.7079,0.85837 -13.4548,2.71749 -3.5766,1.71571 -5.6204,4.00401 -5.6204,6.43571 0,2.4317 1.8735,4.72 5.4501,6.57912 7.4938,3.71823 19.5861,3.71823 27.2507,0.14238 3.576,-1.71571 5.62,-4.00401 5.62,-6.43571 0,-2.43069 -1.873,-4.71899 -5.45,-6.5781 -3.9173,-1.85912 -8.8564,-2.86089 -13.7956,-2.86089 z"
     id="path74"
     inkscape:connector-curvature="0"
     style="fill:#f4a856" />
  <path
     d="m 103.013,271.32338 c -7.4943,3.57484 -19.7569,3.57585 -27.4211,-0.1434 -7.4938,-3.71823 -7.4938,-9.58136 0,-13.30061 7.4939,-3.57484 19.7565,-3.57484 27.4211,0.1434 7.664,3.71823 7.664,9.58238 0,13.30061 z"
     id="path76"
     inkscape:connector-curvature="0"
     style="fill:url(#paint5_radial_3016_73)" />
  <path
     d="m 75.7627,258.59535 c 7.4938,-3.57585 19.7565,-3.57585 27.4203,0.14238 3.577,1.71674 5.45,4.00504 5.621,6.29334 0.17,-2.5751 -1.703,-5.14919 -5.621,-7.0083 -7.4935,-3.71824 -19.7562,-3.71824 -27.4203,-0.1434 -3.9172,1.86013 -5.961,4.43421 -5.6204,7.0083 0.1704,-2.2883 2.0438,-4.5766 5.6204,-6.29232 z"
     id="path78"
     inkscape:connector-curvature="0"
     style="fill:#f4a856" />
  <path
     d="m 105.738,271.75257 c -9.027,4.29081 -23.6741,4.29081 -32.5304,-0.1434 -4.2579,-2.1449 -6.4719,-4.86239 -6.6423,-7.57987 -0.1703,3.00327 2.0438,6.00653 6.6423,8.29483 9.0266,4.43422 23.5034,4.43422 32.5304,0.1434 4.768,-2.2883 6.983,-5.29156 6.812,-8.29483 -0.34,2.85987 -2.555,5.57735 -6.812,7.57987 z"
     id="path80"
     inkscape:connector-curvature="0"
     style="fill:#fce586" />
  <path
     d="m 142.866,288.19883 -1.192,1.57334 c -1.022,-1.57232 -2.895,-3.00327 -5.45,-4.2898 -9.027,-4.43422 -23.504,-4.43422 -32.53,-0.1434 -2.555,1.14415 -4.258,2.57408 -5.4502,4.14741 l -1.3625,-1.42993 0,3.43245 c -0.1704,2.85987 2.0438,5.86313 6.6427,8.15143 9.026,4.43422 23.503,4.43422 32.53,0.1434 4.428,-2.1449 6.812,-5.00578 6.812,-7.86565 l 0,-3.71925 z"
     id="path82"
     inkscape:connector-curvature="0"
     style="fill:#f4a856" />
  <path
     d="m 136.053,296.0655 c -9.026,4.2898 -23.673,4.2898 -32.53,-0.1434 -9.0262,-4.4332 -8.8559,-11.4415 0,-15.8747 9.027,-4.29082 23.674,-4.29082 32.53,0.1434 9.027,4.5766 9.027,11.58388 0,15.8747 z"
     id="path84"
     inkscape:connector-curvature="0"
     style="fill:#fccc6b" />
  <path
     d="m 136.053,296.0655 c -9.026,4.2898 -23.673,4.2898 -32.53,-0.1434 -9.0262,-4.4332 -8.8559,-11.4415 0,-15.8747 9.027,-4.29082 23.674,-4.29082 32.53,0.1434 9.027,4.5766 9.027,11.58388 0,15.8747 z"
     id="path86"
     inkscape:connector-curvature="0"
     style="fill:url(#paint6_radial_3016_73)" />
  <path
     d="m 119.873,297.63883 c -5.109,0 -10.048,-1.00176 -13.965,-2.86088 -3.747,-1.85912 -5.791,-4.29082 -5.791,-6.8649 0,-2.57408 2.044,-5.00578 5.791,-6.7215 7.664,-3.71823 19.926,-3.57585 27.591,0.1434 3.747,1.85912 5.79,4.2898 5.79,6.86388 0,2.5751 -2.043,5.00579 -5.79,6.72252 -3.747,1.85912 -8.686,2.71748 -13.626,2.71748 z m -0.17,-18.73558 c -4.939,0 -9.708,0.85837 -13.455,2.71748 -3.576,1.71572 -5.62,4.00402 -5.62,6.43572 0,2.43068 1.873,4.71898 5.45,6.5781 7.494,3.71925 19.586,3.71925 27.25,0.1434 3.577,-1.71572 5.621,-4.00402 5.621,-6.43572 0,-2.43068 -1.874,-4.71898 -5.45,-6.5781 -3.918,-1.86013 -8.857,-2.86088 -13.796,-2.86088 z"
     id="path88"
     inkscape:connector-curvature="0"
     style="fill:#f4a856" />
  <path
     d="m 133.499,294.77795 c -7.494,3.57585 -19.757,3.57585 -27.421,-0.14238 -7.4935,-3.71925 -7.4935,-9.58239 0,-13.30062 7.494,-3.57585 19.757,-3.57585 27.421,0.14238 7.494,3.71824 7.494,9.72579 0,13.30062 z"
     id="path90"
     inkscape:connector-curvature="0"
     style="fill:url(#paint7_radial_3016_73)" />
  <path
     d="m 106.078,282.1923 c 7.494,-3.57483 19.757,-3.57483 27.421,0.1434 3.577,1.71572 5.45,4.00402 5.62,6.29232 0.171,-2.57409 -1.703,-5.14817 -5.62,-7.00729 -7.494,-3.71823 -19.757,-3.71823 -27.421,-0.1434 -3.917,1.85912 -5.961,4.43422 -5.62,7.0083 0.17,-2.2883 2.044,-4.5766 5.62,-6.29333 z"
     id="path92"
     inkscape:connector-curvature="0"
     style="fill:#f4a856" />
  <path
     d="m 136.054,295.35053 c -9.027,4.2898 -23.674,4.2898 -32.53,-0.1434 -4.2583,-2.1449 -6.4724,-4.86238 -6.6427,-7.57986 -0.1704,3.00326 2.0438,6.00653 6.6427,8.29483 9.026,4.4332 23.503,4.4332 32.53,0.1434 4.768,-2.2883 6.982,-5.29157 6.812,-8.29483 -0.17,2.85986 -2.555,5.57735 -6.812,7.57986 z"
     id="path94"
     inkscape:connector-curvature="0"
     style="fill:#fce586" />
  <path
     d="m 96.7113,294.92135 -1.1922,1.57232 c -1.0219,-1.57232 -2.8954,-3.00327 -5.4501,-4.2898 -9.0266,-4.4332 -23.5033,-4.4332 -32.53,-0.1434 -2.5547,1.14415 -4.2578,2.57408 -5.45,4.14741 l -1.3625,-1.42993 0,3.43245 c -0.1703,2.85987 2.0437,5.86313 6.6422,8.15143 9.0267,4.43422 23.5034,4.43422 32.53,0.1434 4.4282,-2.1449 6.8126,-5.00578 6.8126,-7.86565 l 0,-3.71823 z"
     id="path96"
     inkscape:connector-curvature="0"
     style="fill:#f4a856" />
  <path
     d="m 89.8988,302.787 c -9.0266,4.29082 -23.6736,4.29082 -32.53,-0.1434 -9.0266,-4.4332 -8.8563,-11.44048 0,-15.8747 9.0267,-4.2898 23.6737,-4.2898 32.53,0.1434 9.197,4.4332 9.0267,11.58388 0,15.8747 z"
     id="path98"
     inkscape:connector-curvature="0"
     style="fill:#fccc6b" />
  <path
     d="m 89.8988,302.787 c -9.0266,4.29082 -23.6736,4.29082 -32.53,-0.1434 -9.0266,-4.4332 -8.8563,-11.44048 0,-15.8747 9.0267,-4.2898 23.6737,-4.2898 32.53,0.1434 9.197,4.4332 9.0267,11.58388 0,15.8747 z"
     id="path100"
     inkscape:connector-curvature="0"
     style="fill:url(#paint8_radial_3016_73)" />
  <path
     d="m 73.8892,304.36033 c -5.1094,0 -10.0485,-1.00176 -13.9657,-2.86088 -3.7469,-1.85912 -5.7907,-4.2898 -5.7907,-6.8649 0,-2.57408 2.0438,-5.00477 5.7907,-6.7215 7.6641,-3.71823 19.9267,-3.57483 27.5909,0.1434 3.7469,1.85912 5.7907,4.2898 5.7907,6.8649 0,2.57408 -2.0438,5.00477 -5.7907,6.7215 -3.9173,1.85912 -8.6861,2.71748 -13.6252,2.71748 z m -0.3406,-18.73558 c -4.9391,0 -9.7079,0.85837 -13.4548,2.71748 -3.5766,1.71674 -5.6204,4.00504 -5.6204,6.43572 0,2.4317 1.8735,4.72 5.4501,6.57912 7.4938,3.71823 19.5861,3.71823 27.2503,0.14238 3.5766,-1.71572 5.6203,-4.00402 5.6203,-6.43572 0,-2.43068 -1.8734,-4.71898 -5.6203,-6.5781 -3.5766,-1.85911 -8.686,-2.86088 -13.6252,-2.86088 z"
     id="path102"
     inkscape:connector-curvature="0"
     style="fill:#f4a856" />
  <path
     d="m 87.3441,301.49945 c -7.4938,3.57585 -19.7564,3.57585 -27.4206,-0.14238 -7.4938,-3.71824 -7.4938,-9.58239 0,-13.30062 7.4939,-3.57585 19.7565,-3.57585 27.4206,0.14238 7.6642,3.71925 7.6642,9.72579 0,13.30062 z"
     id="path104"
     inkscape:connector-curvature="0"
     style="fill:url(#paint9_radial_3016_73)" />
  <path
     d="m 60.0935,288.91482 c 7.4938,-3.57585 19.7564,-3.57585 27.4206,0.14238 3.5766,1.71673 5.4501,4.00503 5.6204,6.29333 0.1703,-2.5751 -1.7032,-5.14918 -5.6204,-7.0083 -7.4938,-3.71823 -19.7564,-3.71823 -27.4206,-0.1434 -3.9172,1.85912 -5.961,4.43422 -5.6204,7.0083 0.1703,-2.2883 2.0438,-4.5766 5.6204,-6.29231 z"
     id="path106"
     inkscape:connector-curvature="0"
     style="fill:#f4a856" />
  <path
     d="m 89.8987,302.07203 c -9.0266,4.2898 -23.6737,4.2898 -32.53,-0.1434 -4.2578,-2.1449 -6.4719,-4.86238 -6.6422,-7.57986 -0.1703,3.00326 2.0437,6.00653 6.6422,8.29483 9.0267,4.43422 23.5034,4.43422 32.53,0.1434 4.7688,-2.2883 6.9829,-5.29157 6.8126,-8.29483 -0.1703,2.85986 -2.3844,5.57735 -6.8126,7.57986 z"
     id="path108"
     inkscape:connector-curvature="0"
     style="fill:#fce586" />
  <path
     d="m 118.511,287.77067 -1.192,1.57231 c -1.022,-1.57231 -2.895,-3.00326 -5.45,-4.2898 -9.027,-4.43421 -23.5033,-4.43421 -32.53,-0.1434 -2.5547,1.14415 -4.2578,2.57409 -5.45,4.14742 l -1.3625,-1.42993 0,3.43245 c -0.1704,2.85986 2.0437,5.86313 6.6422,8.15143 9.0267,4.43422 23.5033,4.43422 32.5303,0.1434 4.428,-2.1449 6.812,-5.00578 6.812,-7.86565 l 0,-3.71823 z"
     id="path110"
     inkscape:connector-curvature="0"
     style="fill:#f4a856" />
  <path
     d="m 111.699,295.63632 c -9.027,4.2898 -23.6742,4.2898 -32.5306,-0.1434 -9.0266,-4.4332 -9.0266,-11.4415 0,-15.8747 9.0267,-4.2898 23.6736,-4.2898 32.5306,0.1434 9.196,4.5766 9.026,11.58388 0,15.8747 z"
     id="path112"
     inkscape:connector-curvature="0"
     style="fill:#fccc6b" />
  <path
     d="m 111.699,295.63632 c -9.027,4.2898 -23.6742,4.2898 -32.5306,-0.1434 -9.0266,-4.4332 -9.0266,-11.4415 0,-15.8747 9.0267,-4.2898 23.6736,-4.2898 32.5306,0.1434 9.196,4.5766 9.026,11.58388 0,15.8747 z"
     id="path114"
     inkscape:connector-curvature="0"
     style="fill:url(#paint10_radial_3016_73)" />
  <path
     d="m 95.6892,297.20965 c -5.1094,0 -10.0485,-1.00177 -13.9658,-2.86088 -3.7469,-1.85912 -5.7907,-4.2898 -5.7907,-6.8649 0,-2.57409 2.0438,-5.00477 5.7907,-6.7215 7.6642,-3.71824 19.9266,-3.57484 27.5906,0.1434 3.747,1.85911 5.791,4.2898 5.791,6.8649 0,2.57408 -2.044,5.00476 -5.791,6.7215 -3.747,1.85911 -8.686,2.71748 -13.6248,2.71748 z m -0.3406,-18.73558 c -4.9391,0 -9.7079,0.85836 -13.4549,2.71748 -3.5766,1.71572 -5.6203,4.00402 -5.6203,6.43572 0,2.4317 1.8734,4.71898 5.45,6.5781 7.4939,3.71925 19.5866,3.71925 27.2506,0.1434 3.576,-1.71572 5.62,-4.00402 5.62,-6.43572 0,-2.43068 -1.873,-4.71898 -5.45,-6.5781 -3.747,-1.85912 -8.686,-2.86088 -13.7954,-2.86088 z"
     id="path116"
     inkscape:connector-curvature="0"
     style="fill:#f4a856" />
  <path
     d="m 109.144,294.49217 c -7.494,3.57483 -19.757,3.57483 -27.4211,-0.1434 -7.4938,-3.71824 -7.4938,-9.58137 0,-13.30062 7.4938,-3.57483 19.7561,-3.57483 27.4211,0.1434 7.664,3.71823 7.664,9.58238 0,13.30062 z"
     id="path118"
     inkscape:connector-curvature="0"
     style="fill:url(#paint11_radial_3016_73)" />
  <path
     d="m 81.8935,281.76312 c 7.4938,-3.57484 19.7565,-3.57484 27.4205,0.1434 3.577,1.71673 5.45,4.00503 5.62,6.29333 0.171,-2.5751 -1.703,-5.14918 -5.62,-7.0083 -7.494,-3.71823 -19.7564,-3.71823 -27.4205,-0.1434 -3.9172,1.85912 -5.961,4.43422 -5.6204,7.0083 0.1703,-2.2883 2.0438,-4.5766 5.6204,-6.29333 z"
     id="path120"
     inkscape:connector-curvature="0"
     style="fill:#f4a856" />
  <path
     d="m 111.699,294.92135 c -9.027,4.2898 -23.674,4.2898 -32.5303,-0.1434 -4.2579,-2.1449 -6.4719,-4.86238 -6.6422,-7.57987 -0.1704,3.00327 2.0437,6.00654 6.6422,8.29484 9.0267,4.4332 23.5033,4.4332 32.5303,0.1434 4.769,-2.2883 6.983,-5.29157 6.812,-8.29484 -0.17,2.85987 -2.384,5.57735 -6.812,7.57987 z"
     id="path122"
     inkscape:connector-curvature="0"
     style="fill:#fce586" />
  <path
     d="m 124.472,283.90903 -1.192,1.57334 c -1.022,-1.57334 -2.895,-3.00327 -5.45,-4.29082 -9.027,-4.4332 -23.5034,-4.4332 -32.53,-0.1434 -2.5548,1.14415 -4.2579,2.5751 -5.4501,4.14742 l -1.3625,-1.42994 0,3.43245 c -0.1703,2.86089 2.0438,5.86415 6.6422,8.15245 9.0267,4.4332 23.5034,4.4332 32.5304,0.14239 4.428,-2.1449 6.812,-5.00579 6.812,-7.86565 l 0,-3.71824 z"
     id="path124"
     inkscape:connector-curvature="0"
     style="fill:#f4a856" />
  <path
     d="m 117.66,291.77468 c -9.027,4.29082 -23.6741,4.29082 -32.5305,-0.1434 -9.0266,-4.4332 -9.0266,-11.44048 0,-15.8747 9.0267,-4.2898 23.6735,-4.2898 32.5305,0.1434 9.196,4.5766 9.026,11.58389 0,15.8747 z"
     id="path126"
     inkscape:connector-curvature="0"
     style="fill:#fccc6b" />
  <path
     d="m 117.66,291.77468 c -9.027,4.29082 -23.6741,4.29082 -32.5305,-0.1434 -9.0266,-4.4332 -9.0266,-11.44048 0,-15.8747 9.0267,-4.2898 23.6735,-4.2898 32.5305,0.1434 9.196,4.5766 9.026,11.58389 0,15.8747 z"
     id="path128"
     inkscape:connector-curvature="0"
     style="fill:url(#paint12_radial_3016_73)" />
  <path
     d="m 101.65,293.34802 c -5.1092,0 -10.0483,-1.00075 -13.9656,-2.86089 -3.7469,-1.85911 -5.7907,-4.2898 -5.7907,-6.86388 0,-2.5751 2.0438,-5.00578 5.7907,-6.72252 7.6642,-3.71823 19.9266,-3.57483 27.5906,0.1434 3.747,1.85912 5.791,4.29082 5.791,6.8649 0,2.57409 -2.044,5.00579 -5.791,6.7215 -3.747,1.85912 -8.686,2.71749 -13.625,2.71749 z m -0.34,-18.73559 c -4.9395,0 -9.7083,0.85837 -13.4553,2.71749 -3.5766,1.71673 -5.6203,4.00503 -5.6203,6.43571 0,2.4317 1.8734,4.72 5.45,6.57912 7.4939,3.71823 19.5866,3.71823 27.2506,0.14238 3.576,-1.71571 5.62,-4.00401 5.62,-6.43571 0,-2.43069 -1.873,-4.71899 -5.45,-6.5781 -3.747,-1.85912 -8.686,-2.86089 -13.795,-2.86089 z"
     id="path130"
     inkscape:connector-curvature="0"
     style="fill:#f4a856" />
  <path
     d="m 115.105,290.48815 c -7.494,3.57483 -19.7568,3.57483 -27.421,-0.1434 -7.4938,-3.71823 -7.4938,-9.58238 0,-13.30062 7.4939,-3.57585 19.756,-3.57585 27.421,0.1434 7.664,3.86062 7.664,9.72477 0,13.30062 z"
     id="path132"
     inkscape:connector-curvature="0"
     style="fill:url(#paint13_radial_3016_73)" />
  <path
     d="m 87.8544,277.9025 c 7.4938,-3.57585 19.7566,-3.57585 27.4206,0.14238 3.577,1.71674 5.45,4.00504 5.62,6.29334 0.171,-2.5751 -1.703,-5.14919 -5.62,-7.0083 -7.494,-3.71824 -19.7565,-3.71824 -27.4206,-0.14239 -3.9173,1.85912 -5.961,4.4332 -5.6204,7.00729 0.1703,-2.2883 2.0438,-4.5766 5.6204,-6.29232 z"
     id="path134"
     inkscape:connector-curvature="0"
     style="fill:#f4a856" />
  <path
     d="m 117.66,291.05972 c -9.027,4.29081 -23.674,4.29081 -32.5304,-0.1434 -4.2578,-2.1449 -6.4719,-4.86239 -6.6422,-7.57987 -0.1703,3.00327 2.0438,6.00653 6.6422,8.29483 9.0267,4.43422 23.5034,4.43422 32.5304,0.1434 4.768,-2.2883 6.983,-5.29156 6.812,-8.29483 -0.17,2.85987 -2.384,5.57735 -6.812,7.57987 z"
     id="path136"
     inkscape:connector-curvature="0"
     style="fill:#fce586" />
  <path
     d="m 127.708,276.47257 -1.192,1.57231 c -1.022,-1.57231 -2.895,-3.00326 -5.45,-4.2898 -9.027,-4.4332 -23.5035,-4.4332 -32.5302,-0.1434 -2.5547,1.14415 -4.2578,2.57409 -5.45,4.14742 l -1.3626,-1.42993 0,3.43245 c -0.1703,2.85986 2.0438,5.86313 6.6423,8.15143 9.0266,4.43422 23.5035,4.43422 32.5295,0.1434 4.429,-2.1449 6.813,-5.00578 6.813,-7.86565 l 0,-3.71823 z"
     id="path138"
     inkscape:connector-curvature="0"
     style="fill:#f4a856" />
  <path
     d="m 120.896,284.33822 c -9.027,4.2898 -23.6742,4.2898 -32.5305,-0.1434 -9.0267,-4.4332 -8.8564,-11.4415 0,-15.8747 9.0266,-4.29082 23.6735,-4.29082 32.5305,0.1434 9.026,4.5766 9.026,11.58388 0,15.8747 z"
     id="path140"
     inkscape:connector-curvature="0"
     style="fill:#fccc6b" />
  <path
     d="m 120.896,284.33822 c -9.027,4.2898 -23.6742,4.2898 -32.5305,-0.1434 -9.0267,-4.4332 -8.8564,-11.4415 0,-15.8747 9.0266,-4.29082 23.6735,-4.29082 32.5305,0.1434 9.026,4.5766 9.026,11.58388 0,15.8747 z"
     id="path142"
     inkscape:connector-curvature="0"
     style="fill:url(#paint14_radial_3016_73)" />
  <path
     d="m 104.715,285.91155 c -5.109,0 -10.048,-1.00177 -13.9653,-2.86088 -3.7469,-1.85912 -5.7907,-4.29082 -5.7907,-6.8649 0,-2.57409 2.0438,-5.00579 5.7907,-6.7215 7.6642,-3.71824 19.9263,-3.57585 27.5913,0.14238 3.747,1.86013 5.79,4.29082 5.79,6.8649 0,2.5751 -2.043,5.00578 -5.79,6.72252 -3.747,1.85911 -8.686,2.71748 -13.626,2.71748 z m -0.17,-18.73558 c -4.939,0 -9.7078,0.85836 -13.4547,2.71748 -3.5766,1.71572 -5.6203,4.00402 -5.6203,6.43572 0,2.43068 1.8734,4.71898 5.45,6.5781 7.4938,3.71925 19.586,3.71925 27.25,0.1434 3.577,-1.71572 5.621,-4.00402 5.621,-6.43572 0,-2.4317 -1.874,-4.72 -5.45,-6.57912 -3.918,-1.85911 -8.857,-2.85986 -13.796,-2.85986 z"
     id="path144"
     inkscape:connector-curvature="0"
     style="fill:#f4a856" />
  <path
     d="m 118.341,283.05067 c -7.494,3.57483 -19.7566,3.57483 -27.4207,-0.1434 -7.4938,-3.71824 -7.4938,-9.58137 0,-13.2996 7.4938,-3.57585 19.7567,-3.57585 27.4207,0.14238 7.494,3.71823 7.494,9.72477 0,13.30062 z"
     id="path146"
     inkscape:connector-curvature="0"
     style="fill:url(#paint15_radial_3016_73)" />
  <path
     d="m 90.9204,270.46502 c 7.4938,-3.57484 19.7566,-3.57484 27.4206,0.1434 3.577,1.71571 5.45,4.00401 5.62,6.29231 0.171,-2.57408 -1.703,-5.14816 -5.62,-7.00728 -7.494,-3.71823 -19.7565,-3.71823 -27.4206,-0.1434 -3.9172,1.85912 -5.961,4.4332 -5.6203,7.0083 0.1703,-2.2883 2.0437,-4.5766 5.6203,-6.29333 z"
     id="path148"
     inkscape:connector-curvature="0"
     style="fill:#f4a856" />
  <path
     d="m 120.895,283.62325 c -9.026,4.2898 -23.6732,4.2898 -32.5295,-0.1434 -4.2579,-2.1449 -6.472,-4.86238 -6.6423,-7.57987 -0.1703,3.00327 2.0438,6.00654 6.6423,8.29484 9.0266,4.4332 23.5035,4.4332 32.5295,0.1434 4.769,-2.2883 6.983,-5.29157 6.813,-8.29484 -0.17,2.85987 -2.555,5.57735 -6.813,7.57987 z"
     id="path150"
     inkscape:connector-curvature="0"
     style="fill:#fce586" />
  <path
     d="m 143.547,279.61822 -1.703,1.28755 c -0.681,-1.71674 -2.044,-3.43245 -4.258,-5.14919 -7.664,-5.86313 -21.97,-8.43721 -31.848,-5.72075 -2.725,0.71497 -4.769,1.85912 -6.3021,3.14667 l -1.0218,-1.71572 -0.8516,3.28905 c -0.8516,2.85987 0.6812,6.14994 4.5985,9.0098 7.664,5.86415 21.971,8.43824 31.849,5.72075 4.939,-1.28755 7.834,-3.71823 8.515,-6.57911 l 1.022,-3.28905 z"
     id="path152"
     inkscape:connector-curvature="0"
     style="fill:#f4a856" />
  <path
     d="m 135.032,286.19733 c -9.879,2.71749 -24.185,0.1434 -31.849,-5.72075 -7.6644,-5.86415 -5.9613,-12.72803 3.917,-15.44551 9.878,-2.71749 24.185,-0.1434 31.849,5.72075 7.664,5.72075 5.961,12.72803 -3.917,15.44551 z"
     id="path154"
     inkscape:connector-curvature="0"
     style="fill:#fccc6b" />
  <path
     d="m 135.032,286.19733 c -9.879,2.71749 -24.185,0.1434 -31.849,-5.72075 -7.6644,-5.86415 -5.9613,-12.72803 3.917,-15.44551 9.878,-2.71749 24.185,-0.1434 31.849,5.72075 7.664,5.72075 5.961,12.72803 -3.917,15.44551 z"
     id="path156"
     inkscape:connector-curvature="0"
     style="fill:url(#paint16_radial_3016_73)" />
  <path
     d="m 118.852,284.90978 c -4.939,-0.85836 -9.708,-2.71748 -12.944,-5.14816 -3.236,-2.4317 -4.599,-5.14919 -3.917,-7.57987 0.681,-2.5751 3.236,-4.43422 7.323,-5.57837 8.345,-2.2883 20.438,-0.14238 26.91,4.86239 3.236,2.4317 4.598,5.14918 3.917,7.57986 -0.681,2.5751 -3.236,4.43422 -7.324,5.57837 -4.087,1.14415 -9.197,1.14415 -13.965,0.28578 z M 123.28,266.461 c -4.769,-0.85837 -9.708,-0.85837 -13.796,0.28578 -3.917,1.00075 -6.472,3.00327 -6.983,5.43497 -0.681,2.43068 0.682,5.00477 3.747,7.29307 6.472,4.86238 18.394,7.0083 26.569,4.72 3.918,-1.00177 6.472,-3.00327 6.983,-5.43497 0.681,-2.43068 -0.681,-5.00578 -3.747,-7.29408 -3.406,-2.2883 -8.004,-4.14742 -12.773,-5.00477 z"
     id="path158"
     inkscape:connector-curvature="0"
     style="fill:#f4a856" />
  <path
     d="m 132.818,284.4806 c -8.346,2.2883 -20.268,0.1434 -26.74,-4.86238 -6.4717,-4.86239 -4.939,-10.72654 3.236,-13.01484 8.346,-2.2883 20.268,-0.14238 26.74,4.8634 6.471,4.86239 5.109,10.72552 -3.236,13.01382 z"
     id="path160"
     inkscape:connector-curvature="0"
     style="fill:url(#paint17_radial_3016_73)" />
  <path
     d="m 109.144,267.46175 c 8.345,-2.2883 20.267,-0.1434 26.739,4.86238 3.066,2.2883 4.428,4.86239 3.917,7.15069 0.852,-2.43069 -0.34,-5.29157 -3.747,-7.86565 -6.472,-4.86239 -18.394,-7.00729 -26.739,-4.86239 -4.428,1.14415 -6.813,3.43245 -7.323,5.86415 0.851,-2.2883 3.236,-4.14843 7.153,-5.14918 z"
     id="path162"
     inkscape:connector-curvature="0"
     style="fill:#f4a856" />
  <path
     d="m 135.202,285.48237 c -9.879,2.71748 -24.185,0.14238 -31.849,-5.72075 -3.747,-2.86089 -5.2799,-5.86415 -4.7689,-8.58164 -1.0219,2.86089 0.511,6.14994 4.5989,9.2966 7.664,5.86314 21.97,8.43824 31.848,5.72075 5.11,-1.42993 8.175,-4.00503 8.686,-6.8649 -0.851,2.57409 -3.747,4.86239 -8.515,6.14994 z"
     id="path164"
     inkscape:connector-curvature="0"
     style="fill:#fce586" />
  <path
     d="m 108.463,198.0988 -2.044,0.85837 c 0,-1.85912 -0.851,-3.86164 -2.214,-6.00654 -5.2797,-7.57986 -17.8829,-13.5864 -28.2721,-13.5864 -2.8953,0 -5.2798,0.42919 -7.1532,1.28755 l -0.3406,-1.86013 -2.0438,3.00428 c -1.8735,2.43069 -1.5328,6.00654 1.0219,9.86715 5.2797,7.57987 17.883,13.5864 28.2722,13.5864 5.2796,0 8.8566,-1.57231 10.5596,-4.00401 l 2.214,-3.14667 z"
     id="path166"
     inkscape:connector-curvature="0"
     style="fill:#f4a856" />
  <path
     d="m 97.9036,202.24622 c -10.3892,0 -22.9924,-6.00654 -28.2722,-13.5864 -5.2797,-7.57987 -1.0219,-13.72878 9.3673,-13.72878 10.3892,0 22.9923,6.00653 28.2723,13.58639 5.28,7.43647 1.022,13.5864 -9.3674,13.72879 z"
     id="path168"
     inkscape:connector-curvature="0"
     style="fill:#fccc6b" />
  <path
     d="m 97.9036,202.24622 c -10.3892,0 -22.9924,-6.00654 -28.2722,-13.5864 -5.2797,-7.57987 -1.0219,-13.72878 9.3673,-13.72878 10.3892,0 22.9923,6.00653 28.2723,13.58639 5.28,7.43647 1.022,13.5864 -9.3674,13.72879 z"
     id="path170"
     inkscape:connector-curvature="0"
     style="fill:url(#paint18_radial_3016_73)" />
  <path
     d="m 82.9161,196.81227 c -4.4281,-2.1449 -8.1751,-5.00579 -10.3892,-8.15245 -2.214,-3.14565 -2.5547,-6.00654 -1.0219,-8.29484 1.5329,-2.2883 4.7689,-3.43245 9.0267,-3.43245 8.8564,0 19.5863,5.14919 23.8443,11.4415 2.214,3.14667 2.554,6.00654 1.022,8.29484 -1.533,2.2883 -4.769,3.43245 -9.0271,3.43245 -4.2578,0 -9.1969,-1.14415 -13.4548,-3.28905 z m 10.9001,-16.30389 c -4.2578,-2.00251 -9.0266,-3.28904 -13.2845,-3.28904 -4.0875,0 -7.1532,1.14414 -8.686,3.28904 -1.3625,2.1449 -1.0219,5.00579 1.0219,8.00905 4.4282,6.29232 14.9876,11.2981 23.6737,11.2981 4.0877,0 7.1527,-1.14415 8.6857,-3.28905 1.363,-2.14591 1.022,-5.00578 -1.022,-8.00905 -2.384,-3.14666 -6.1309,-6.00653 -10.3888,-8.00905 z"
     id="path172"
     inkscape:connector-curvature="0"
     style="fill:#f4a856" />
  <path
     d="m 96.3704,199.95893 c -8.686,0 -19.4158,-5.00578 -23.844,-11.4415 -4.4282,-6.29333 -0.8516,-11.4415 7.8345,-11.5849 8.686,0 19.4158,5.00579 23.8441,11.4415 4.428,6.43572 0.851,11.5849 -7.8346,11.5849 z"
     id="path174"
     inkscape:connector-curvature="0"
     style="fill:url(#paint19_radial_3016_73)" />
  <path
     d="m 80.0207,177.7909 c 8.686,0 19.4158,5.00578 23.8443,11.4415 2.043,3.00327 2.384,5.72075 1.192,7.72225 1.703,-2.1449 1.533,-5.14817 -0.681,-8.43722 -4.4286,-6.29333 -14.988,-11.4415 -23.8444,-11.4415 -4.5985,0 -7.6641,1.42994 -9.0267,3.71824 1.3626,-1.85912 4.4282,-3.00327 8.5158,-3.00327 z"
     id="path176"
     inkscape:connector-curvature="0"
     style="fill:#f4a856" />
  <path
     d="m 98.4148,201.53125 c -10.3891,0 -22.9924,-6.00653 -28.2722,-13.5864 -2.5547,-3.57483 -2.8954,-6.8649 -1.3625,-9.29558 -1.8735,2.57408 -1.7032,6.00653 1.0219,10.01055 5.2797,7.57986 17.883,13.5864 28.2722,13.5864 5.4498,0 9.1968,-1.71572 10.7298,-4.4332 -1.873,2.2883 -5.45,3.71823 -10.3892,3.71823 z"
     id="path178"
     inkscape:connector-curvature="0"
     style="fill:#fce586" />
  <path
     d="m 104.034,231.99412 -0.17,1.85911 c -1.873,-0.85836 -4.2577,-1.42993 -7.3234,-1.42993 -10.3891,-0.1434 -23.1627,5.86313 -28.4425,13.443 -1.5328,2.14592 -2.2141,4.00503 -2.3844,5.86415 l -2.0438,-0.71497 2.0438,3.00327 c 1.7032,2.57408 5.2798,4.14742 10.5595,4.29082 10.3892,0.14238 23.1628,-5.86415 28.4428,-13.44402 2.725,-3.71823 2.895,-7.15068 1.362,-9.72477 l -2.044,-3.14666 z"
     id="path180"
     inkscape:connector-curvature="0"
     style="fill:#f4a856" />
  <path
     d="m 102.672,241.71888 c -5.2799,7.43749 -18.0534,13.44402 -28.4426,13.44402 -10.3892,-0.1434 -14.4767,-6.29333 -9.197,-13.7298 5.2798,-7.43647 18.0533,-13.44402 28.4425,-13.44402 10.3891,0 14.6471,6.14994 9.1971,13.7298 z"
     id="path182"
     inkscape:connector-curvature="0"
     style="fill:#fccc6b" />
  <path
     d="m 102.672,241.71888 c -5.2799,7.43749 -18.0534,13.44402 -28.4426,13.44402 -10.3892,-0.1434 -14.4767,-6.29333 -9.197,-13.7298 5.2798,-7.43647 18.0533,-13.44402 28.4425,-13.44402 10.3891,0 14.6471,6.14994 9.1971,13.7298 z"
     id="path184"
     inkscape:connector-curvature="0"
     style="fill:url(#paint20_radial_3016_73)" />
  <path
     d="m 89.558,249.72793 c -4.4282,2.1449 -9.3673,3.28905 -13.7955,3.28905 -4.2578,0 -7.4938,-1.28653 -9.0266,-3.57483 -1.5328,-2.2883 -1.1922,-5.14918 1.0219,-8.29483 4.4282,-6.29334 15.3282,-11.4415 24.0143,-11.2981 4.2578,0 7.4938,1.28653 9.0269,3.57483 1.533,2.2883 1.192,5.14918 -1.0221,8.29483 -2.0438,3.14667 -5.961,6.00654 -10.2189,8.00905 z M 78.4876,233.42405 c -4.2579,2.00252 -8.0048,4.86238 -10.0486,7.86565 -2.0437,3.00327 -2.5547,5.86415 -1.0219,8.00905 1.3625,2.14592 4.4282,3.29007 8.6861,3.43245 8.686,0.1434 19.2455,-4.86238 23.6737,-11.1547 2.0441,-3.00327 2.5551,-5.86415 1.0221,-8.00905 -1.3627,-2.1449 -4.4284,-3.28905 -8.6863,-3.43245 -4.4281,0 -9.3673,1.28755 -13.6251,3.28905 z"
     id="path186"
     inkscape:connector-curvature="0"
     style="fill:#f4a856" />
  <path
     d="m 99.7766,241.5765 c -4.4282,6.29232 -15.158,11.2981 -23.844,11.2981 -8.686,-0.1434 -12.2626,-5.29157 -7.6641,-11.5849 4.4282,-6.29232 15.1579,-11.2981 23.8439,-11.2981 8.5156,0.1434 12.0926,5.29157 7.6642,11.5849 z"
     id="path188"
     inkscape:connector-curvature="0"
     style="fill:url(#paint21_radial_3016_73)" />
  <path
     d="m 68.609,242.00467 c 4.4282,-6.29232 15.158,-11.2981 23.844,-11.2981 4.0876,0 7.1532,1.28755 8.516,3.14666 -1.3628,-2.2883 -4.4285,-3.71823 -9.027,-3.86163 -8.686,-0.14238 -19.4158,5.00578 -23.844,11.2981 -2.3844,3.29007 -2.5547,6.29333 -0.8516,8.43823 -1.1922,-2.00251 -0.8515,-4.72 1.3626,-7.72326 z"
     id="path190"
     inkscape:connector-curvature="0"
     style="fill:#f4a856" />
  <path
     d="m 102.331,241.00392 c -5.2795,7.43748 -18.0531,13.44401 -28.4422,13.44401 -4.9391,0 -8.5157,-1.42993 -10.2189,-3.86163 1.5328,2.71748 5.2798,4.4332 10.7298,4.4332 10.3892,0.1434 23.1627,-5.86313 28.4423,-13.443 2.725,-3.86163 2.896,-7.43748 1.022,-10.01157 1.363,2.57409 1.022,5.86415 -1.533,9.43899 z"
     id="path192"
     inkscape:connector-curvature="0"
     style="fill:#fce586" />
  <defs
     id="defs194">
    <radialGradient
       id="paint0_radial_3016_73"
       cx="0"
       cy="0"
       r="1"
       gradientUnits="userSpaceOnUse"
       gradientTransform="matrix(20.484916,-21.275827,21.822659,21.011421,70.9001,147.609)">
      <stop
         stop-color="#FCE586"
         id="stop197" />
      <stop
         offset="0.2273"
         stop-color="#FCDB7B"
         id="stop199" />
      <stop
         offset="0.6161"
         stop-color="#FCD06F"
         id="stop201" />
      <stop
         offset="1"
         stop-color="#FCCC6B"
         id="stop203" />
    </radialGradient>
    <radialGradient
       id="paint1_radial_3016_73"
       cx="0"
       cy="0"
       r="1"
       gradientUnits="userSpaceOnUse"
       gradientTransform="matrix(48.729666,-50.611619,51.912541,49.982214,103.899,152.431)">
      <stop
         stop-color="#FCE586"
         id="stop206" />
      <stop
         offset="0.2273"
         stop-color="#FCDB7B"
         id="stop208" />
      <stop
         offset="0.6161"
         stop-color="#FCD06F"
         id="stop210" />
      <stop
         offset="1"
         stop-color="#FCCC6B"
         id="stop212" />
    </radialGradient>
    <radialGradient
       id="paint2_radial_3016_73"
       cx="0"
       cy="0"
       r="1"
       gradientUnits="userSpaceOnUse"
       gradientTransform="matrix(31.467401,-7.9800686,6.7747067,26.714358,72.1277,259.121)">
      <stop
         stop-color="#FCE586"
         id="stop215" />
      <stop
         offset="0.2273"
         stop-color="#FCDB7B"
         id="stop217" />
      <stop
         offset="0.6161"
         stop-color="#FCD06F"
         id="stop219" />
      <stop
         offset="1"
         stop-color="#FCCC6B"
         id="stop221" />
    </radialGradient>
    <radialGradient
       id="paint3_radial_3016_73"
       cx="0"
       cy="0"
       r="1"
       gradientUnits="userSpaceOnUse"
       gradientTransform="matrix(74.856294,-18.983541,16.116243,63.549902,96.0382,278.506)">
      <stop
         stop-color="#FCE586"
         id="stop224" />
      <stop
         offset="0.2273"
         stop-color="#FCDB7B"
         id="stop226" />
      <stop
         offset="0.6161"
         stop-color="#FCD06F"
         id="stop228" />
      <stop
         offset="1"
         stop-color="#FCCC6B"
         id="stop230" />
    </radialGradient>
    <radialGradient
       id="paint4_radial_3016_73"
       cx="0"
       cy="0"
       r="1"
       gradientUnits="userSpaceOnUse"
       gradientTransform="matrix(31.467692,-7.9801425,6.7747805,26.714649,76.0846,254.458)">
      <stop
         stop-color="#FCE586"
         id="stop233" />
      <stop
         offset="0.2273"
         stop-color="#FCDB7B"
         id="stop235" />
      <stop
         offset="0.6161"
         stop-color="#FCD06F"
         id="stop237" />
      <stop
         offset="1"
         stop-color="#FCCC6B"
         id="stop239" />
    </radialGradient>
    <radialGradient
       id="paint5_radial_3016_73"
       cx="0"
       cy="0"
       r="1"
       gradientUnits="userSpaceOnUse"
       gradientTransform="matrix(74.85623,-18.983387,16.116034,63.549543,99.9948,273.843)">
      <stop
         stop-color="#FCE586"
         id="stop242" />
      <stop
         offset="0.2273"
         stop-color="#FCDB7B"
         id="stop244" />
      <stop
         offset="0.6161"
         stop-color="#FCD06F"
         id="stop246" />
      <stop
         offset="1"
         stop-color="#FCCC6B"
         id="stop248" />
    </radialGradient>
    <radialGradient
       id="paint6_radial_3016_73"
       cx="0"
       cy="0"
       r="1"
       gradientUnits="userSpaceOnUse"
       gradientTransform="matrix(31.467401,-7.9800686,6.7747067,26.714358,106.46,277.634)">
      <stop
         stop-color="#FCE586"
         id="stop251" />
      <stop
         offset="0.2273"
         stop-color="#FCDB7B"
         id="stop253" />
      <stop
         offset="0.6161"
         stop-color="#FCD06F"
         id="stop255" />
      <stop
         offset="1"
         stop-color="#FCCC6B"
         id="stop257" />
    </radialGradient>
    <radialGradient
       id="paint7_radial_3016_73"
       cx="0"
       cy="0"
       r="1"
       gradientUnits="userSpaceOnUse"
       gradientTransform="matrix(74.856197,-18.983518,16.116243,63.549902,130.371,297.02)">
      <stop
         stop-color="#FCE586"
         id="stop260" />
      <stop
         offset="0.2273"
         stop-color="#FCDB7B"
         id="stop262" />
      <stop
         offset="0.6161"
         stop-color="#FCD06F"
         id="stop264" />
      <stop
         offset="1"
         stop-color="#FCCC6B"
         id="stop266" />
    </radialGradient>
    <radialGradient
       id="paint8_radial_3016_73"
       cx="0"
       cy="0"
       r="1"
       gradientUnits="userSpaceOnUse"
       gradientTransform="matrix(31.467401,-7.9800686,6.7747067,26.714358,60.365,284.235)">
      <stop
         stop-color="#FCE586"
         id="stop269" />
      <stop
         offset="0.2273"
         stop-color="#FCDB7B"
         id="stop271" />
      <stop
         offset="0.6161"
         stop-color="#FCD06F"
         id="stop273" />
      <stop
         offset="1"
         stop-color="#FCCC6B"
         id="stop275" />
    </radialGradient>
    <radialGradient
       id="paint9_radial_3016_73"
       cx="0"
       cy="0"
       r="1"
       gradientUnits="userSpaceOnUse"
       gradientTransform="matrix(74.85623,-18.983387,16.116034,63.549543,84.2755,303.621)">
      <stop
         stop-color="#FCE586"
         id="stop278" />
      <stop
         offset="0.2273"
         stop-color="#FCDB7B"
         id="stop280" />
      <stop
         offset="0.6161"
         stop-color="#FCD06F"
         id="stop282" />
      <stop
         offset="1"
         stop-color="#FCCC6B"
         id="stop284" />
    </radialGradient>
    <radialGradient
       id="paint10_radial_3016_73"
       cx="0"
       cy="0"
       r="1"
       gradientUnits="userSpaceOnUse"
       gradientTransform="matrix(31.467512,-7.9800383,6.7746601,26.71437,82.1731,277.237)">
      <stop
         stop-color="#FCE586"
         id="stop287" />
      <stop
         offset="0.2273"
         stop-color="#FCDB7B"
         id="stop289" />
      <stop
         offset="0.6161"
         stop-color="#FCD06F"
         id="stop291" />
      <stop
         offset="1"
         stop-color="#FCCC6B"
         id="stop293" />
    </radialGradient>
    <radialGradient
       id="paint11_radial_3016_73"
       cx="0"
       cy="0"
       r="1"
       gradientUnits="userSpaceOnUse"
       gradientTransform="matrix(74.856327,-18.983412,16.116083,63.549737,106.083,296.622)">
      <stop
         stop-color="#FCE586"
         id="stop296" />
      <stop
         offset="0.2273"
         stop-color="#FCDB7B"
         id="stop298" />
      <stop
         offset="0.6161"
         stop-color="#FCD06F"
         id="stop300" />
      <stop
         offset="1"
         stop-color="#FCCC6B"
         id="stop302" />
    </radialGradient>
    <radialGradient
       id="paint12_radial_3016_73"
       cx="0"
       cy="0"
       r="1"
       gradientUnits="userSpaceOnUse"
       gradientTransform="matrix(31.467387,-7.9801236,6.7748271,26.714637,88.1347,273.433)">
      <stop
         stop-color="#FCE586"
         id="stop305" />
      <stop
         offset="0.2273"
         stop-color="#FCDB7B"
         id="stop307" />
      <stop
         offset="0.6161"
         stop-color="#FCD06F"
         id="stop309" />
      <stop
         offset="1"
         stop-color="#FCCC6B"
         id="stop311" />
    </radialGradient>
    <radialGradient
       id="paint13_radial_3016_73"
       cx="0"
       cy="0"
       r="1"
       gradientUnits="userSpaceOnUse"
       gradientTransform="matrix(74.856391,-18.983567,16.116293,63.550096,112.045,292.819)">
      <stop
         stop-color="#FCE586"
         id="stop314" />
      <stop
         offset="0.2273"
         stop-color="#FCDB7B"
         id="stop316" />
      <stop
         offset="0.6161"
         stop-color="#FCD06F"
         id="stop318" />
      <stop
         offset="1"
         stop-color="#FCCC6B"
         id="stop320" />
    </radialGradient>
    <radialGradient
       id="paint14_radial_3016_73"
       cx="0"
       cy="0"
       r="1"
       gradientUnits="userSpaceOnUse"
       gradientTransform="matrix(31.467484,-7.9801481,6.7748271,26.714637,91.2927,266.117)">
      <stop
         stop-color="#FCE586"
         id="stop323" />
      <stop
         offset="0.2273"
         stop-color="#FCDB7B"
         id="stop325" />
      <stop
         offset="0.6161"
         stop-color="#FCD06F"
         id="stop327" />
      <stop
         offset="1"
         stop-color="#FCCC6B"
         id="stop329" />
    </radialGradient>
    <radialGradient
       id="paint15_radial_3016_73"
       cx="0"
       cy="0"
       r="1"
       gradientUnits="userSpaceOnUse"
       gradientTransform="matrix(74.8562,-18.983101,16.115616,63.548824,115.203,285.502)">
      <stop
         stop-color="#FCE586"
         id="stop332" />
      <stop
         offset="0.2273"
         stop-color="#FCDB7B"
         id="stop334" />
      <stop
         offset="0.6161"
         stop-color="#FCD06F"
         id="stop336" />
      <stop
         offset="1"
         stop-color="#FCCC6B"
         id="stop338" />
    </radialGradient>
    <radialGradient
       id="paint16_radial_3016_73"
       cx="0"
       cy="0"
       r="1"
       gradientUnits="userSpaceOnUse"
       gradientTransform="matrix(32.779587,-2.4923279,2.0633566,27.137672,109.569,263.129)">
      <stop
         stop-color="#FCE586"
         id="stop341" />
      <stop
         offset="0.2273"
         stop-color="#FCDB7B"
         id="stop343" />
      <stop
         offset="0.6161"
         stop-color="#FCD06F"
         id="stop345" />
      <stop
         offset="1"
         stop-color="#FCCC6B"
         id="stop347" />
    </radialGradient>
    <radialGradient
       id="paint17_radial_3016_73"
       cx="0"
       cy="0"
       r="1"
       gradientUnits="userSpaceOnUse"
       gradientTransform="matrix(77.977626,-5.9289218,4.9084849,64.556764,128.167,286.145)">
      <stop
         stop-color="#FCE586"
         id="stop350" />
      <stop
         offset="0.2273"
         stop-color="#FCDB7B"
         id="stop352" />
      <stop
         offset="0.6161"
         stop-color="#FCD06F"
         id="stop354" />
      <stop
         offset="1"
         stop-color="#FCCC6B"
         id="stop356" />
    </radialGradient>
    <radialGradient
       id="paint18_radial_3016_73"
       cx="0"
       cy="0"
       r="1"
       gradientUnits="userSpaceOnUse"
       gradientTransform="matrix(32.147838,5.8462518,-4.8991887,26.940052,80.5906,175.076)">
      <stop
         stop-color="#FCE586"
         id="stop359" />
      <stop
         offset="0.2273"
         stop-color="#FCDB7B"
         id="stop361" />
      <stop
         offset="0.6161"
         stop-color="#FCD06F"
         id="stop363" />
      <stop
         offset="1"
         stop-color="#FCCC6B"
         id="stop365" />
    </radialGradient>
    <radialGradient
       id="paint19_radial_3016_73"
       cx="0"
       cy="0"
       r="1"
       gradientUnits="userSpaceOnUse"
       gradientTransform="matrix(76.474529,13.907291,-11.654322,64.08572,89.8418,201.67)">
      <stop
         stop-color="#FCE586"
         id="stop368" />
      <stop
         offset="0.2273"
         stop-color="#FCDB7B"
         id="stop370" />
      <stop
         offset="0.6161"
         stop-color="#FCD06F"
         id="stop372" />
      <stop
         offset="1"
         stop-color="#FCCC6B"
         id="stop374" />
    </radialGradient>
    <radialGradient
       id="paint20_radial_3016_73"
       cx="0"
       cy="0"
       r="1"
       gradientUnits="userSpaceOnUse"
       gradientTransform="matrix(22.610871,-19.753509,19.605806,22.441802,68.5537,237.982)">
      <stop
         stop-color="#FCE586"
         id="stop377" />
      <stop
         offset="0.2273"
         stop-color="#FCDB7B"
         id="stop379" />
      <stop
         offset="0.6161"
         stop-color="#FCD06F"
         id="stop381" />
      <stop
         offset="1"
         stop-color="#FCCC6B"
         id="stop383" />
    </radialGradient>
    <radialGradient
       id="paint21_radial_3016_73"
       cx="0"
       cy="0"
       r="1"
       gradientUnits="userSpaceOnUse"
       gradientTransform="matrix(53.787305,-46.98981,46.638416,53.385079,100.933,245.113)">
      <stop
         stop-color="#FCE586"
         id="stop386" />
      <stop
         offset="0.2273"
         stop-color="#FCDB7B"
         id="stop388" />
      <stop
         offset="0.6161"
         stop-color="#FCD06F"
         id="stop390" />
      <stop
         offset="1"
         stop-color="#FCCC6B"
         id="stop392" />
    </radialGradient>
  </defs>
</svg>
