<?xml version="1.0" encoding="UTF-8" standalone="no"?>
<svg
   xmlns:dc="http://purl.org/dc/elements/1.1/"
   xmlns:cc="http://creativecommons.org/ns#"
   xmlns:rdf="http://www.w3.org/1999/02/22-rdf-syntax-ns#"
   xmlns:svg="http://www.w3.org/2000/svg"
   xmlns="http://www.w3.org/2000/svg"
   xmlns:sodipodi="http://sodipodi.sourceforge.net/DTD/sodipodi-0.dtd"
   xmlns:inkscape="http://www.inkscape.org/namespaces/inkscape"
   width="179"
   height="51"
   viewBox="0 0 179 51"
   fill="none"
   id="svg2"
   version="1.1"
   inkscape:version="0.91 r13725"
   sodipodi:docname="Equiteez.svg">
  <metadata
     id="metadata24">
    <rdf:RDF>
      <cc:Work
         rdf:about="">
        <dc:format>image/svg+xml</dc:format>
        <dc:type
           rdf:resource="http://purl.org/dc/dcmitype/StillImage" />
      </cc:Work>
    </rdf:RDF>
  </metadata>
  <defs
     id="defs22" />
  <sodipodi:namedview
     pagecolor="#ffffff"
     bordercolor="#666666"
     borderopacity="1"
     objecttolerance="10"
     gridtolerance="10"
     guidetolerance="10"
     inkscape:pageopacity="0"
     inkscape:pageshadow="2"
     inkscape:window-width="1920"
     inkscape:window-height="1017"
     id="namedview20"
     showgrid="false"
     inkscape:zoom="2.122905"
     inkscape:cx="89.5"
     inkscape:cy="25.5"
     inkscape:window-x="-8"
     inkscape:window-y="-8"
     inkscape:window-maximized="1"
     inkscape:current-layer="svg2" />
  <g
     id="g4153">
    <path
       id="path4"
       fill="#2ECC71"
       d="M25.6922 0L25.0649 4.53212H9.81868L8.15496 16.4904H21.6011L21.0011 21.0225H7.47311L5.64574 33.6087H25.6922L25.0104 38.1408H0L5.53664 0H25.6922Z" />
    <path
       id="path6"
       fill="#2ECC71"
       d="M51.139 12.2586L45.7387 51H40.993L42.8749 37.4036C40.8203 38.4229 39.0929 38.9325 37.6928 38.9325C34.8381 38.9325 32.5198 37.8951 30.7379 35.8201C28.956 33.727 28.0651 30.9968 28.0651 27.6296C28.0651 23.243 29.6106 19.5846 32.7017 16.6542C35.8109 13.7238 40.193 12.2586 45.8478 12.2586H51.139ZM43.3931 33.8817L45.8478 16.1627C41.793 15.9625 38.6292 16.9454 36.3564 19.1113C34.0835 21.2591 32.9471 24.1895 32.9471 27.9026C32.9471 30.0503 33.5381 31.7703 34.7199 33.0626C35.92 34.3549 37.5019 35.0011 39.4656 35.0011C40.5021 35.0011 41.8112 34.6279 43.3931 33.8817Z" />
    <path
       id="path8"
       fill="#2ECC71"
       d="M77.0766 13.023L73.5037 38.1408H68.8126L69.249 33.8817C66.3579 36.9759 63.6032 38.523 60.9849 38.523C59.2939 38.523 57.8575 37.9224 56.6756 36.7211C55.5119 35.5016 54.9301 33.7725 54.9301 31.5337C54.9301 30.8967 54.9755 30.2505 55.0664 29.5953L57.412 13.023H62.1577L59.8121 29.5953C59.7394 30.1413 59.703 30.651 59.703 31.1242C59.703 33.636 60.6304 34.8919 62.485 34.8919C64.4305 34.8919 66.9489 33.0444 70.0399 29.3496L72.3309 13.023H77.0766Z" />
    <path
       id="path10"
       fill="#2ECC71"
       d="M84.1406 5.16006C84.1406 4.39561 84.4043 3.74946 84.9316 3.22163C85.4771 2.67559 86.1226 2.40257 86.868 2.40257C87.6135 2.40257 88.2499 2.67559 88.7772 3.22163C89.3227 3.74946 89.5955 4.39561 89.5955 5.16006C89.5955 5.90632 89.3227 6.55246 88.7772 7.0985C88.2499 7.62634 87.6135 7.89026 86.868 7.89026C86.1226 7.89026 85.4771 7.62634 84.9316 7.0985C84.4043 6.55246 84.1406 5.90632 84.1406 5.16006ZM88.3681 13.023L84.8498 38.1408H80.1041L83.6224 13.023H88.3681Z" />
    <path
       id="path12"
       fill="#2ECC71"
       d="M105.278 13.023L104.76 16.7361H99.7414L97.3413 30.469C97.214 31.1606 97.1504 31.743 97.1504 32.2163C97.1504 33.8544 98.0323 34.6734 99.796 34.6734C101.105 34.6734 102.632 34.1729 104.378 33.1718L104.105 37.8132C102.36 38.5594 100.623 38.9325 98.8959 38.9325C96.8413 38.9325 95.2139 38.4138 94.0139 37.3763C92.832 36.3207 92.2411 34.9374 92.2411 33.2264C92.2411 32.8078 92.2865 32.3801 92.3774 31.9433L94.9957 16.7361H90.5773L91.1501 13.023H95.7049L96.6595 7.89026H101.351L100.478 13.023H105.278Z" />
    <path
       id="path14"
       fill="#2ECC71"
       d="M126.743 31.5883L126.061 36.1204C123.515 37.9952 120.724 38.9325 117.688 38.9325C114.524 38.9325 111.978 37.8314 110.051 35.629C108.142 33.4085 107.187 30.4599 107.187 26.7832C107.187 22.6879 108.333 19.2479 110.624 16.4631C112.933 13.6601 115.751 12.2586 119.079 12.2586C121.624 12.2586 123.743 13.2414 125.434 15.2072C127.125 17.1547 127.97 19.6756 127.97 22.7698C127.97 23.5343 127.916 24.3169 127.806 25.1178H112.151C112.006 25.955 111.933 26.7559 111.933 27.5203C111.933 29.8319 112.56 31.6611 113.815 33.008C115.088 34.3367 116.679 35.0011 118.588 35.0011C120.915 35.0011 123.634 33.8635 126.743 31.5883ZM112.888 21.8142H123.388C123.388 20.0669 122.988 18.6927 122.188 17.6916C121.406 16.6724 120.297 16.1627 118.861 16.1627C116.133 16.1627 114.142 18.0466 112.888 21.8142Z" />
    <path
       id="path16"
       fill="#2ECC71"
       d="M151.235 31.5883L150.553 36.1204C148.008 37.9952 145.216 38.9325 142.18 38.9325C139.016 38.9325 136.471 37.8314 134.543 35.629C132.634 33.4085 131.679 30.4599 131.679 26.7832C131.679 22.6879 132.825 19.2479 135.116 16.4631C137.425 13.6601 140.243 12.2586 143.571 12.2586C146.117 12.2586 148.235 13.2414 149.926 15.2072C151.617 17.1547 152.462 19.6756 152.462 22.7698C152.462 23.5343 152.408 24.3169 152.299 25.1178H136.643C136.498 25.955 136.425 26.7559 136.425 27.5203C136.425 29.8319 137.052 31.6611 138.307 33.008C139.58 34.3367 141.171 35.0011 143.08 35.0011C145.407 35.0011 148.126 33.8635 151.235 31.5883ZM137.38 21.8142H147.88C147.88 20.0669 147.48 18.6927 146.68 17.6916C145.898 16.6724 144.789 16.1627 143.353 16.1627C140.625 16.1627 138.634 18.0466 137.38 21.8142Z" />
    <path
       fill="#2ECC71"
       id="path18"
       d="M179 13.023L162.363 33.9363H176.954L176.054 38.1408H153.308L169.672 17.2275H157.017L157.563 13.023H179Z" />
  </g>
</svg>
