<?xml version="1.0" encoding="UTF-8" standalone="no"?>
<svg
   xmlns:dc="http://purl.org/dc/elements/1.1/"
   xmlns:cc="http://creativecommons.org/ns#"
   xmlns:rdf="http://www.w3.org/1999/02/22-rdf-syntax-ns#"
   xmlns:svg="http://www.w3.org/2000/svg"
   xmlns="http://www.w3.org/2000/svg"
   xmlns:sodipodi="http://sodipodi.sourceforge.net/DTD/sodipodi-0.dtd"
   xmlns:inkscape="http://www.inkscape.org/namespaces/inkscape"
   width="30"
   height="31"
   viewBox="0 0 30 31"
   fill="none"
   id="svg2"
   version="1.1"
   inkscape:version="0.91 r13725"
   sodipodi:docname="Medium.svg">
  <metadata
     id="metadata12">
    <rdf:RDF>
      <cc:Work
         rdf:about="">
        <dc:format>image/svg+xml</dc:format>
        <dc:type
           rdf:resource="http://purl.org/dc/dcmitype/StillImage" />
      </cc:Work>
    </rdf:RDF>
  </metadata>
  <defs
     id="defs10" />
  <sodipodi:namedview
     pagecolor="#ffffff"
     bordercolor="#666666"
     borderopacity="1"
     objecttolerance="10"
     gridtolerance="10"
     guidetolerance="10"
     inkscape:pageopacity="0"
     inkscape:pageshadow="2"
     inkscape:window-width="1920"
     inkscape:window-height="1017"
     id="namedview8"
     showgrid="false"
     inkscape:zoom="7.6129032"
     inkscape:cx="15"
     inkscape:cy="15.5"
     inkscape:window-x="-8"
     inkscape:window-y="-8"
     inkscape:window-maximized="1"
     inkscape:current-layer="svg2" />
  <path
     d="M 15 0 C 6.71573 0 0 6.7801013 0 15.144531 C 0 23.508831 6.71573 30.291016 15 30.291016 C 23.2843 30.291016 30 23.508831 30 15.144531 C 30 6.7801013 23.2843 0 15 0 z M 5.2519531 6.9414062 L 11.050781 6.9414062 L 15.53125 17.097656 L 19.472656 6.9414062 L 25 6.9414062 L 25 7.2890625 L 23.404297 8.8710938 C 23.266597 8.9795238 23.197962 9.1576144 23.226562 9.3339844 L 23.226562 20.957031 C 23.197962 21.133431 23.266597 21.311522 23.404297 21.419922 L 24.962891 23.001953 L 24.962891 23.347656 L 17.119141 23.347656 L 17.119141 23.001953 L 18.734375 21.380859 C 18.893175 21.216959 18.894531 21.168769 18.894531 20.917969 L 18.894531 11.523438 L 14.402344 23.310547 L 13.794922 23.310547 L 8.5664062 11.523438 L 8.5664062 19.423828 C 8.5228063 19.755928 8.6291688 20.089878 8.8554688 20.330078 L 10.957031 22.962891 L 10.957031 23.310547 L 5 23.310547 L 5 22.962891 L 7.1015625 20.330078 C 7.3262125 20.089478 7.4254937 19.753328 7.3710938 19.423828 L 7.3710938 10.289062 C 7.3959437 10.035362 7.3024706 9.7840312 7.1191406 9.6132812 L 5.2519531 7.2890625 L 5.2519531 6.9414062 z "
     id="path4"
     style="fill:#2ecc71;fill-opacity:1" />
</svg>
